<svg width="1364" height="587" viewBox="0 0 1364 587" fill="none" xmlns="http://www.w3.org/2000/svg">
<g clip-path="url(#clip0_2_2)">
<rect width="1364" height="587" fill="white"/>
<path d="M1046.83 753.694L952.698 583.501L858.864 363.399C849.383 341.263 823.711 331.068 801.925 340.48C779.789 349.961 769.594 375.633 779.006 397.419L875.142 621.795C876.398 624.457 877.722 627.469 879.678 629.993L1002.6 785.746L1046.83 753.694Z" fill="#8383D6"/>
<path d="M901.766 688.201L846.689 560.846C829.818 521.617 783.65 503.476 744.071 520.417L694.474 541.89C654.895 558.83 636.404 605.068 653.625 644.227L714.001 783.631C730.872 822.86 777.04 841.001 816.619 824.06L866.216 802.587C877.284 797.847 886.466 790.933 893.901 782.546C898.226 751.124 900.731 719.699 901.766 688.201Z" fill="#F7B98F"/>
<path d="M669.286 255.059C672.84 263.815 676.849 293.222 679.003 302.255C682.129 316.191 685.116 329.426 677.324 341.522C684.942 348.745 695.363 353.593 706.002 354.032C716.291 354.54 726.937 351.339 735.557 345.264C737.8 343.728 739.904 341.491 742.077 339.605C744.531 337.3 747.335 334.925 749.789 332.619C732.464 313.129 716.753 290.772 715.258 264.869C708.748 265.068 699.09 264.071 692.579 264.27C689.709 264.475 686.769 264.329 683.968 264.885C679.836 266.067 673.976 254.857 669.286 255.059Z" fill="#FF8772"/>
<path d="M719.494 284.406C717.545 278.243 715.876 271.66 715.678 265.15C709.167 265.349 699.509 264.352 692.999 264.55C690.129 264.755 687.189 264.61 684.388 265.165C684.388 265.165 684.388 265.165 684.038 265.235C693.541 274.631 706.06 280.883 719.494 284.406Z" fill="#2D1A14"/>
<path d="M606.526 518.566C605.204 513.734 603.813 508.552 602.492 503.719C602.35 504.839 601.788 505.678 601.646 506.798C603.04 510.16 604.573 514.223 606.526 518.566Z" fill="#5A525D"/>
<path d="M856.697 361.645C856.697 361.645 833.877 321.776 786.413 324.633L786.344 324.283L784.593 324.63C778.502 325.109 771.85 326.428 764.986 328.515L748.881 331.707C727.246 334.539 705.753 336.252 684.257 339.784C682.157 340.201 680.056 340.617 677.955 341.033C672.003 342.213 666.052 343.392 660.169 344.922C660.169 344.922 659.819 344.991 659.469 345.061C656.668 345.616 654.286 346.452 651.555 347.357C648.823 348.262 646.442 349.098 643.71 350.003C635.515 352.719 627.81 356.065 620.312 360.462C618.981 361.09 617.719 362.068 616.738 362.626C616.107 363.115 615.407 363.254 614.776 363.742C613.165 364.79 611.272 366.256 609.31 367.373C609.31 367.373 609.31 367.373 608.96 367.442C608.96 367.442 608.96 367.442 608.61 367.512C592.35 379.103 574.683 394.612 574.367 415.051C573.862 463.91 600.798 511.696 618.921 555.408C642.76 613.269 662.466 672.312 678.46 732.82C678.599 733.52 678.738 734.22 678.877 734.92L909.39 691.784L856.697 361.645Z" fill="#8383D6"/>
<path d="M727.402 245.361C727.471 245.711 727.541 246.061 727.61 246.411L727.68 246.761L727.749 247.111C727.818 247.461 727.888 247.812 727.888 247.812C727.888 247.812 727.888 247.811 727.957 248.162C728.027 248.512 728.096 248.862 727.885 249.631C727.954 249.982 728.023 250.332 727.812 251.101L727.881 251.451L727.951 251.802C728.02 252.152 727.739 252.571 727.809 252.921C727.598 253.691 727.456 254.811 727.244 255.58C727.314 255.93 727.314 255.93 727.033 256.35C726.679 258.239 725.976 260.198 725.203 261.807C724.923 262.226 724.992 262.576 724.711 262.996C724.781 263.346 724.431 263.415 724.431 263.415C724.15 263.835 724.219 264.185 723.869 264.254C723.308 265.093 722.746 265.932 722.115 266.421C721.835 266.841 721.554 267.26 721.204 267.33C720.012 268.657 718.819 269.985 717.557 270.963C716.646 271.872 715.315 272.499 714.403 273.408C714.053 273.477 713.772 273.897 713.772 273.897C713.422 273.966 713.422 273.966 713.141 274.385L712.791 274.455L712.441 274.524C712.091 274.594 711.81 275.013 711.46 275.082C709.779 275.78 707.748 276.546 705.647 276.962C705.297 277.032 704.597 277.17 704.247 277.24C699.276 277.861 694.096 277.432 689.69 275.394C681.366 271.95 674.449 264.588 672.506 254.785L671.188 248.132L667.372 228.876L666.192 222.924L664.527 214.521C664.457 214.171 664.319 213.471 664.249 213.121C664.18 212.77 664.18 212.77 664.11 212.42C664.041 212.07 664.041 212.07 663.972 211.72C663.902 211.37 663.902 211.37 663.833 211.02L663.763 210.67L663.694 210.32C663.694 210.32 663.694 210.32 663.625 209.97C663.555 209.619 663.555 209.619 663.486 209.269L663.417 208.919L663.347 208.569C663.278 208.219 663.208 207.869 663.489 207.449C663.42 207.099 663.42 207.099 663.35 206.749C663.281 206.399 663.281 206.399 663.211 206.049C663.142 205.699 663.142 205.699 663.073 205.349C663.003 204.999 663.003 204.999 662.934 204.648C662.865 204.298 662.865 204.298 663.145 203.879C663.076 203.529 663.076 203.529 663.357 203.109C663.287 202.759 663.568 202.34 663.499 201.989C663.499 201.989 663.499 201.989 663.429 201.639C663.36 201.289 663.641 200.87 663.571 200.52C663.571 200.52 663.571 200.52 663.502 200.169C663.432 199.819 663.713 199.4 663.644 199.05C666.461 189.395 674.453 181.989 684.537 179.626C696.091 177.337 707.352 182.746 713.566 192.067C715.24 195.01 716.565 198.022 717.678 201.804L726.008 241.998C727.194 244.31 727.333 245.011 727.402 245.361Z" fill="#FF8772"/>
<path d="M657.695 234.377C649.974 235.982 645.016 243.541 646.621 251.261C648.225 258.982 655.784 263.94 663.505 262.335C671.225 260.731 676.183 253.172 674.579 245.451C672.974 237.731 665.415 232.773 657.695 234.377Z" fill="#FF8772"/>
<path d="M719.896 214.828L709.461 217.26C708.061 217.537 706.452 216.764 706.244 215.714C705.967 214.314 706.809 213.055 708.559 212.708L718.994 210.276C720.394 209.999 722.003 210.772 722.211 211.822C722.488 213.222 721.296 214.55 719.896 214.828Z" fill="#2D1A14"/>
<path d="M697.557 219.619L687.123 222.051C685.723 222.328 684.114 221.555 683.906 220.505C683.629 219.104 684.471 217.846 686.221 217.499L696.655 215.067C698.056 214.79 699.664 215.563 699.873 216.613C700.15 218.013 699.308 219.272 697.557 219.619Z" fill="#2D1A14"/>
<path d="M710.679 241.761L710.748 242.112C711.164 244.212 708.36 246.587 704.859 247.281C701.358 247.975 697.86 246.849 697.443 244.748L697.374 244.398L710.679 241.761Z" fill="white"/>
<path d="M698.999 236.071L707.603 239.096L703.371 217.739" stroke="#472A1C" stroke-width="0.2911" stroke-miterlimit="10" stroke-linecap="round" stroke-linejoin="round"/>
<path d="M700.838 225.154C701.046 226.205 698.803 227.741 695.722 228.715C694.671 228.924 693.69 229.482 692.64 229.69C691.239 229.968 690.189 230.176 689.069 230.034C685.849 230.308 683.54 229.674 683.682 228.554C683.474 227.504 685.086 226.457 687.817 225.552C689.148 224.924 690.549 224.646 691.949 224.369C693.35 224.091 694.75 223.814 695.87 223.956C698.39 223.82 700.629 224.104 700.838 225.154Z" fill="white"/>
<path d="M696.567 225.637C696.775 226.687 696.283 227.876 695.371 228.785C694.321 228.993 693.34 229.551 692.29 229.759C690.889 230.037 689.839 230.245 688.719 230.103C687.88 229.542 687.041 228.98 686.833 227.93C686.694 227.23 686.906 226.46 687.117 225.69C688.448 225.063 689.848 224.785 691.249 224.508C692.649 224.23 694.05 223.953 695.17 224.095C695.939 224.306 696.428 224.937 696.567 225.637Z" fill="#2D1A14"/>
<path d="M721.495 221.061C721.703 222.111 719.741 223.228 717.359 224.063C716.659 224.202 715.609 224.41 714.909 224.549C713.858 224.757 712.808 224.965 711.757 225.174C709.237 225.309 707.348 224.956 707.209 224.256C707.071 223.555 708.332 222.578 710.714 221.742C711.695 221.183 712.745 220.975 714.145 220.698C715.196 220.49 716.246 220.281 717.366 220.423C719.397 219.657 721.286 220.01 721.495 221.061Z" fill="white"/>
<path d="M717.924 221.404C718.132 222.455 717.921 223.224 717.009 224.133C716.309 224.272 715.259 224.48 714.559 224.618C713.508 224.827 712.458 225.035 711.407 225.243C710.638 225.032 710.08 224.051 709.941 223.35C709.802 222.65 710.013 221.88 710.294 221.461C711.275 220.903 712.325 220.695 713.726 220.417C714.776 220.209 715.827 220.001 716.946 220.143C717.646 220.004 717.785 220.704 717.924 221.404Z" fill="#2D1A14"/>
<path d="M711.263 187.793C706.79 183.585 701.125 180.705 695.107 179.715C689.789 178.586 684.049 178.996 679.005 181.087C673.961 183.178 669.265 187.02 667.366 192.126C667.577 191.357 667.158 191.076 666.738 190.795C665.123 193.662 663.858 196.46 662.593 199.258C662.663 199.608 662.313 199.677 662.382 200.027C662.448 202.198 662.164 204.437 662.231 206.607L667.92 235.317L667.64 235.736C670.434 238.821 673.86 241.417 676.373 244.921L672.557 225.665C674.383 222.028 675.371 217.83 675.658 213.771C675.658 213.771 675.658 213.771 675.588 213.42C682.726 214.553 689.805 209.875 695.482 205.475C702.548 208.078 713.187 208.516 718.726 203.416C718.385 198.025 715.736 192.001 711.263 187.793Z" fill="#2D1A14"/>
<path d="M673.56 212.367C669.009 213.269 664.394 210.181 663.492 205.629L662.382 200.027C661.48 195.476 664.568 190.861 669.12 189.959C673.671 189.057 678.286 192.145 679.188 196.697L680.298 202.299C681.2 206.85 678.112 211.465 673.56 212.367Z" fill="#2D1A14"/>
<path d="M671.779 190.524C668.842 188.559 664.991 189.322 662.537 191.628C660.083 193.934 659.376 197.712 659.3 201.002C659.575 204.223 660.619 207.654 661.593 210.736C663.612 217.249 665.911 223.343 667.93 229.857C666.343 216.344 668.186 203.608 671.779 190.524Z" fill="#2D1A14"/>
<path d="M797.198 81.6145C787.335 77.7473 775.853 78.5672 767.024 83.5918C758.546 88.5469 752.231 97.0757 747.806 105.958C743.38 114.84 739.794 124.284 734.949 132.885C724.767 151.277 708.361 165.808 689.168 173.615C685.105 175.147 680.693 176.75 676.838 179.333C672.984 181.916 669.06 184.149 668.492 188.628C656.73 189.868 654.613 199.384 658.449 207.721C660.193 211.014 662.218 213.887 663.262 217.319C663.331 217.669 663.331 217.669 663.401 218.019C664.098 219.7 664.864 221.732 665.211 223.482C666.324 227.264 667.088 231.115 668.201 234.897C669.251 234.689 670.929 235.812 671.98 235.604C671.639 230.213 671.999 224.684 672.008 219.224C672.365 215.515 672.441 212.225 673.567 208.727C673.497 208.377 673.778 207.957 674.128 207.888C674.409 207.468 675.109 207.33 675.459 207.26C681.13 206.5 687.433 205.251 690.032 200.006C690.659 201.337 691.287 202.668 692.546 203.51C694.293 204.983 696.671 205.967 698.98 206.601C711.575 209.563 725.721 205.668 734.768 196.234C757.79 200.404 779.302 187.772 796.13 171.702C808.962 159.334 819.629 143.393 821.131 125.266C822.771 107.839 813.776 88.1534 797.198 81.6145Z" fill="#2D1A14"/>
<path d="M871.915 425.581L895.299 543.571" stroke="#472A1C" stroke-width="0.4269" stroke-miterlimit="10" stroke-linecap="round" stroke-linejoin="round"/>
<path d="M667.532 857.609L647.919 665.007L655.477 425.903C656.219 402.104 637.284 381.842 613.486 381.1C589.687 380.358 569.425 399.293 568.683 423.091L560.977 666.955C560.832 669.895 561.106 673.115 561.73 676.266L609.482 869.478L667.602 857.959L667.532 857.609Z" fill="#8383D6"/>
<path d="M661.179 487.722L644.624 628.182" stroke="#472A1C" stroke-width="0.4269" stroke-miterlimit="10" stroke-linecap="round" stroke-linejoin="round"/>
<g filter="url(#filter0_d_2_2)">
<circle cx="437.5" cy="161.5" r="25.5" fill="white"/>
<circle cx="437.5" cy="161.5" r="25" stroke="#C6FFDD"/>
</g>
<path opacity="0.4" d="M436.774 176.106C433.522 174.097 430.499 171.729 427.76 169.044C425.827 167.127 424.35 164.786 423.443 162.2C421.823 157.158 423.709 151.395 428.976 149.684C431.755 148.811 434.779 149.347 437.103 151.125V151.125C439.429 149.349 442.451 148.813 445.231 149.684C450.497 151.395 452.396 157.158 450.776 162.2C449.876 164.783 448.409 167.124 446.484 169.044C443.743 171.726 440.72 174.094 437.47 176.106L437.116 176.337L436.774 176.106Z" fill="#52D22E"/>
<path d="M437.109 176.337L436.774 176.106C433.518 174.097 430.491 171.729 427.748 169.044C425.805 167.129 424.319 164.788 423.405 162.2C421.797 157.158 423.684 151.395 428.95 149.684C431.73 148.811 434.793 149.347 437.109 151.14V176.337Z" fill="#52D22E"/>
<path d="M445.968 159.243V159.243C445.682 159.225 445.415 159.082 445.231 158.848C445.047 158.614 444.961 158.309 444.993 158.005V158.005C445.024 157.005 444.455 156.094 443.577 155.74C443.02 155.588 442.683 154.985 442.822 154.39C442.954 153.806 443.502 153.442 444.053 153.573C444.122 153.585 444.189 153.61 444.25 153.648C446.01 154.325 447.15 156.148 447.059 158.141C447.056 158.444 446.938 158.731 446.733 158.939C446.527 159.147 446.251 159.257 445.968 159.243Z" fill="#52D22E"/>
<g filter="url(#filter1_d_2_2)">
<circle cx="884.5" cy="131.5" r="25.5" fill="white"/>
<circle cx="884.5" cy="131.5" r="25" stroke="#FFF9C6"/>
</g>
<path opacity="0.4" d="M869.849 129.78C869.92 133.111 870.12 138.807 870.148 139.435C870.249 140.779 870.764 142.136 871.564 143.093C872.678 144.436 874.05 145.036 875.963 145.036C878.607 145.05 881.521 145.05 884.351 145.05C887.193 145.05 889.951 145.05 892.28 145.036C894.166 145.036 895.58 144.421 896.68 143.093C897.48 142.136 897.994 140.764 898.067 139.435C898.096 138.907 898.238 132.723 898.323 129.78H869.849Z" fill="#FFE600"/>
<path d="M883.018 135.914V137.757C883.018 138.347 883.497 138.825 884.087 138.825C884.676 138.825 885.155 138.347 885.155 137.757V135.914C885.155 135.324 884.676 134.845 884.087 134.845C883.497 134.845 883.018 135.324 883.018 135.914" fill="#FFE600"/>
<path fill-rule="evenodd" clip-rule="evenodd" d="M881.545 134.735C881.403 135.252 880.906 135.582 880.367 135.511C876.734 135.004 873.261 133.715 870.329 131.779C870.029 131.582 869.849 131.246 869.849 130.887V125.95C869.849 122.959 872.288 120.526 875.286 120.526H878.088C878.356 118.458 880.108 116.849 882.248 116.849H885.925C888.063 116.849 889.817 118.458 890.085 120.526H892.901C895.891 120.526 898.324 122.959 898.324 125.95V130.887C898.324 131.246 898.143 131.581 897.845 131.779C894.908 133.723 891.421 135.018 887.763 135.524C887.713 135.531 887.665 135.534 887.616 135.534C887.133 135.534 886.702 135.207 886.581 134.729C886.293 133.595 885.263 132.802 884.079 132.802C882.88 132.802 881.862 133.578 881.545 134.735ZM885.925 118.986H882.248C881.289 118.986 880.488 119.641 880.249 120.526H887.922C887.683 119.641 886.883 118.986 885.925 118.986Z" fill="#FFE600"/>
<g filter="url(#filter2_d_2_2)">
<circle cx="582.5" cy="115.5" r="25.5" fill="white"/>
<circle cx="582.5" cy="115.5" r="25" stroke="#FFF9C6"/>
</g>
<path opacity="0.4" d="M567.849 113.781C567.92 117.111 568.12 122.807 568.148 123.435C568.249 124.779 568.764 126.136 569.564 127.093C570.678 128.436 572.05 129.036 573.963 129.036C576.607 129.05 579.521 129.05 582.351 129.05C585.193 129.05 587.951 129.05 590.28 129.036C592.166 129.036 593.58 128.421 594.68 127.093C595.48 126.136 595.994 124.764 596.067 123.435C596.096 122.907 596.238 116.723 596.323 113.781H567.849Z" fill="#FFE600"/>
<path d="M581.018 119.914V121.757C581.018 122.347 581.497 122.825 582.087 122.825C582.676 122.825 583.155 122.347 583.155 121.757V119.914C583.155 119.324 582.676 118.845 582.087 118.845C581.497 118.845 581.018 119.324 581.018 119.914" fill="#FFE600"/>
<path fill-rule="evenodd" clip-rule="evenodd" d="M579.545 118.735C579.403 119.252 578.906 119.582 578.367 119.511C574.734 119.004 571.261 117.715 568.329 115.779C568.029 115.582 567.849 115.246 567.849 114.887V109.95C567.849 106.959 570.288 104.526 573.286 104.526H576.088C576.356 102.458 578.108 100.849 580.247 100.849H583.925C586.063 100.849 587.817 102.458 588.085 104.526H590.901C593.891 104.526 596.324 106.959 596.324 109.95V114.887C596.324 115.246 596.143 115.581 595.845 115.779C592.908 117.723 589.421 119.018 585.763 119.524C585.713 119.531 585.665 119.534 585.616 119.534C585.133 119.534 584.702 119.207 584.581 118.729C584.293 117.595 583.263 116.802 582.079 116.802C580.88 116.802 579.861 117.578 579.545 118.735ZM583.925 102.986H580.247C579.289 102.986 578.488 103.641 578.249 104.526H585.922C585.683 103.641 584.883 102.986 583.925 102.986Z" fill="#FFE600"/>
<path opacity="0.4" d="M525.31 280.067H518.109C515.293 280.067 513.401 278.091 513.401 275.151V268.365C513.401 265.424 515.293 263.448 518.109 263.448H525.311C528.127 263.448 530.019 265.424 530.019 268.365V275.151C530.019 278.091 528.127 280.067 525.31 280.067" fill="#6270F0"/>
<path fill-rule="evenodd" clip-rule="evenodd" d="M521.083 268.995C521.083 270.133 520.156 271.06 519.018 271.06C517.879 271.06 516.953 270.133 516.953 268.995C516.953 267.856 517.879 266.929 519.018 266.929C520.156 266.929 521.083 267.856 521.083 268.995ZM527.859 273.492C528.053 273.68 528.191 273.894 528.283 274.123C528.56 274.814 528.416 275.645 528.12 276.33C527.769 277.145 527.098 277.761 526.252 278.03C525.877 278.15 525.483 278.202 525.09 278.202H518.126C517.433 278.202 516.82 278.041 516.317 277.738C516.002 277.549 515.946 277.112 516.18 276.828C516.57 276.355 516.956 275.879 517.345 275.4C518.086 274.483 518.585 274.217 519.14 274.45C519.365 274.547 519.591 274.692 519.824 274.845C520.444 275.255 521.306 275.819 522.441 275.207C523.217 274.783 523.667 274.057 524.059 273.425L524.067 273.412C524.093 273.37 524.119 273.328 524.145 273.286C524.279 273.07 524.41 272.858 524.559 272.663C524.743 272.421 525.428 271.665 526.313 272.203C526.877 272.542 527.351 273.001 527.859 273.492Z" fill="#6270F0"/>
<path opacity="0.4" d="M986.571 71.2802H979.37C976.554 71.2802 974.662 69.305 974.662 66.3647V59.5781C974.662 56.6378 976.554 54.6618 979.37 54.6618H986.572C989.388 54.6618 991.28 56.6378 991.28 59.5781V66.3647C991.28 69.305 989.388 71.2802 986.571 71.2802" fill="#6270F0"/>
<path fill-rule="evenodd" clip-rule="evenodd" d="M982.344 60.2082C982.344 61.3466 981.417 62.273 980.279 62.273C979.14 62.273 978.214 61.3466 978.214 60.2082C978.214 59.0699 979.14 58.1425 980.279 58.1425C981.417 58.1425 982.344 59.0699 982.344 60.2082ZM989.12 64.7056C989.314 64.8934 989.452 65.1078 989.544 65.3363C989.821 66.0276 989.677 66.8585 989.381 67.5432C989.03 68.3583 988.359 68.974 987.513 69.2433C987.138 69.3637 986.744 69.4153 986.351 69.4153H979.387C978.694 69.4153 978.081 69.2541 977.578 68.9516C977.263 68.7622 977.207 68.3259 977.441 68.0418C977.831 67.5681 978.217 67.0929 978.606 66.6134C979.347 65.6961 979.846 65.4302 980.401 65.6637C980.626 65.7601 980.852 65.9055 981.085 66.0584C981.705 66.4688 982.567 67.0322 983.702 66.4206C984.478 65.9964 984.928 65.2705 985.32 64.6386L985.328 64.6259C985.354 64.5836 985.38 64.5413 985.406 64.4992C985.54 64.2838 985.671 64.0716 985.82 63.8764C986.004 63.6346 986.689 62.8784 987.574 63.4169C988.138 63.7559 988.612 64.2146 989.12 64.7056Z" fill="#6270F0"/>
<path opacity="0.4" d="M800.785 259.145C798.888 257.973 797.124 256.592 795.527 255.026C794.399 253.907 793.538 252.542 793.008 251.034C792.063 248.092 793.164 244.73 796.236 243.732C797.857 243.223 799.621 243.536 800.977 244.573V244.573C802.333 243.537 804.096 243.224 805.718 243.732C808.79 244.73 809.898 248.092 808.953 251.034C808.428 252.54 807.572 253.906 806.449 255.026C804.85 256.59 803.087 257.972 801.191 259.145L800.984 259.28L800.785 259.145Z" fill="#52D22E"/>
<path d="M800.98 259.28L800.785 259.145C798.886 257.973 797.12 256.592 795.519 255.026C794.386 253.909 793.52 252.543 792.986 251.034C792.048 248.092 793.149 244.73 796.221 243.732C797.842 243.223 799.629 243.536 800.98 244.582V259.28Z" fill="#52D22E"/>
<path d="M806.148 249.309V249.309C805.981 249.298 805.826 249.214 805.718 249.078C805.611 248.941 805.56 248.764 805.579 248.586V248.586C805.597 248.003 805.265 247.472 804.753 247.265C804.428 247.176 804.232 246.825 804.313 246.478C804.39 246.137 804.71 245.924 805.031 246.001C805.071 246.008 805.11 246.023 805.146 246.045C806.173 246.44 806.837 247.503 806.784 248.666C806.783 248.842 806.714 249.01 806.594 249.131C806.474 249.252 806.313 249.316 806.148 249.309Z" fill="#52D22E"/>
</g>
<defs>
<filter id="filter0_d_2_2" x="392" y="130" width="91" height="91" filterUnits="userSpaceOnUse" color-interpolation-filters="sRGB">
<feFlood flood-opacity="0" result="BackgroundImageFix"/>
<feColorMatrix in="SourceAlpha" type="matrix" values="0 0 0 0 0 0 0 0 0 0 0 0 0 0 0 0 0 0 127 0" result="hardAlpha"/>
<feOffset dy="14"/>
<feGaussianBlur stdDeviation="10"/>
<feColorMatrix type="matrix" values="0 0 0 0 0.651319 0 0 0 0 0.941667 0 0 0 0 0.549306 0 0 0 0.4 0"/>
<feBlend mode="normal" in2="BackgroundImageFix" result="effect1_dropShadow_2_2"/>
<feBlend mode="normal" in="SourceGraphic" in2="effect1_dropShadow_2_2" result="shape"/>
</filter>
<filter id="filter1_d_2_2" x="839" y="100" width="91" height="91" filterUnits="userSpaceOnUse" color-interpolation-filters="sRGB">
<feFlood flood-opacity="0" result="BackgroundImageFix"/>
<feColorMatrix in="SourceAlpha" type="matrix" values="0 0 0 0 0 0 0 0 0 0 0 0 0 0 0 0 0 0 127 0" result="hardAlpha"/>
<feOffset dy="14"/>
<feGaussianBlur stdDeviation="10"/>
<feColorMatrix type="matrix" values="0 0 0 0 0.9875 0 0 0 0 0.959109 0 0 0 0 0.703594 0 0 0 0.4 0"/>
<feBlend mode="normal" in2="BackgroundImageFix" result="effect1_dropShadow_2_2"/>
<feBlend mode="normal" in="SourceGraphic" in2="effect1_dropShadow_2_2" result="shape"/>
</filter>
<filter id="filter2_d_2_2" x="537" y="84" width="91" height="91" filterUnits="userSpaceOnUse" color-interpolation-filters="sRGB">
<feFlood flood-opacity="0" result="BackgroundImageFix"/>
<feColorMatrix in="SourceAlpha" type="matrix" values="0 0 0 0 0 0 0 0 0 0 0 0 0 0 0 0 0 0 127 0" result="hardAlpha"/>
<feOffset dy="14"/>
<feGaussianBlur stdDeviation="10"/>
<feColorMatrix type="matrix" values="0 0 0 0 0.9875 0 0 0 0 0.959109 0 0 0 0 0.703594 0 0 0 0.4 0"/>
<feBlend mode="normal" in2="BackgroundImageFix" result="effect1_dropShadow_2_2"/>
<feBlend mode="normal" in="SourceGraphic" in2="effect1_dropShadow_2_2" result="shape"/>
</filter>
<clipPath id="clip0_2_2">
<rect width="1364" height="587" fill="white"/>
</clipPath>
</defs>
</svg>
