<svg width="42" height="42" viewBox="0 0 42 42" fill="none" xmlns="http://www.w3.org/2000/svg">
<path d="M21 1C9.97191 1 1 9.97191 1 21C1 32.028 9.97191 41 21 41C32.028 41 41 32.028 41 21C41 9.97191 32.028 1 21 1Z" fill="#FCEA2B"/>
<path d="M21 41C32.0457 41 41 32.0457 41 21C41 9.9543 32.0457 1 21 1C9.9543 1 1 9.9543 1 21C1 32.0457 9.9543 41 21 41Z" stroke="black" stroke-width="2" stroke-miterlimit="10"/>
<path d="M10.2522 13.9304L17.1461 16.0443L10.3096 18.8687" stroke="black" stroke-width="2" stroke-miterlimit="10" stroke-linecap="round" stroke-linejoin="round"/>
<path d="M31.7478 13.9304L24.8539 16.0443L31.6904 18.8687" stroke="black" stroke-width="2" stroke-miterlimit="10" stroke-linecap="round" stroke-linejoin="round"/>
<path d="M10.5044 28.2957L13.5766 25.7775L16.9948 30.6036L21.0018 27.087L25.0087 30.6036L28.4383 25.7775L31.5096 28.3036V28.2943" stroke="black" stroke-width="2" stroke-linecap="round" stroke-linejoin="round"/>
</svg>
