<svg width="347" height="475" viewBox="0 0 347 475" fill="none" xmlns="http://www.w3.org/2000/svg">
<circle cx="109.5" cy="237.5" r="237.5" fill="white"/>
<mask id="mask0_2_3056" style="mask-type:alpha" maskUnits="userSpaceOnUse" x="-128" y="0" width="475" height="475">
<circle cx="109.5" cy="237.5" r="237.5" fill="white"/>
</mask>
<g mask="url(#mask0_2_3056)">
<path d="M413.653 561.336L347.569 441.855L281.694 287.336C275.038 271.795 257.016 264.638 241.721 271.246C226.18 277.902 219.023 295.924 225.631 311.219L293.122 468.739C294.003 470.608 294.933 472.722 296.306 474.494L382.605 583.838L413.653 561.336Z" fill="#8383D6"/>
<path d="M311.813 515.358L273.147 425.95C261.303 398.41 228.891 385.675 201.105 397.568L166.286 412.643C138.5 424.535 125.519 456.996 137.609 484.487L179.995 582.354C191.839 609.894 224.251 622.629 252.037 610.736L286.856 595.661C294.626 592.333 301.072 587.48 306.291 581.592C309.328 559.532 311.086 537.471 311.813 515.358Z" fill="#F7B98F"/>
<path d="M148.603 211.277C151.099 217.424 153.913 238.069 155.425 244.411C157.62 254.194 159.716 263.485 154.247 271.977C159.594 277.048 166.911 280.452 174.38 280.76C181.603 281.116 189.076 278.869 195.128 274.604C196.703 273.526 198.18 271.956 199.706 270.632C201.428 269.013 203.397 267.346 205.12 265.727C192.957 252.044 181.927 236.349 180.878 218.164C176.307 218.304 169.527 217.604 164.956 217.743C162.941 217.887 160.878 217.785 158.911 218.175C156.01 219.005 151.896 211.135 148.603 211.277Z" fill="#FF8772"/>
<path d="M183.851 231.88C182.483 227.553 181.312 222.932 181.172 218.361C176.602 218.501 169.821 217.801 165.251 217.94C163.236 218.084 161.172 217.982 159.206 218.372C159.206 218.372 159.206 218.372 158.96 218.421C165.632 225.017 174.42 229.406 183.851 231.88Z" fill="#2D1A14"/>
<path d="M104.544 396.269C103.616 392.876 102.639 389.238 101.712 385.846C101.612 386.632 101.218 387.221 101.118 388.007C102.097 390.367 103.173 393.219 104.544 396.269Z" fill="#5A525D"/>
<path d="M280.173 286.105C280.173 286.105 264.153 258.115 230.831 260.12L230.782 259.875L229.553 260.118C225.277 260.455 220.607 261.38 215.789 262.846L204.482 265.087C189.294 267.075 174.205 268.277 159.114 270.757C157.639 271.049 156.165 271.342 154.69 271.634C150.511 272.462 146.333 273.29 142.203 274.364C142.203 274.364 141.957 274.413 141.711 274.462C139.745 274.851 138.073 275.438 136.156 276.074C134.238 276.709 132.566 277.296 130.648 277.931C124.895 279.838 119.486 282.187 114.222 285.274C113.288 285.715 112.402 286.401 111.713 286.793C111.27 287.136 110.779 287.234 110.336 287.577C109.204 288.312 107.876 289.342 106.498 290.125C106.498 290.125 106.498 290.125 106.253 290.174C106.253 290.174 106.253 290.174 106.007 290.223C94.5916 298.36 82.1888 309.248 81.9672 323.597C81.6123 357.898 100.522 391.446 113.246 422.133C129.981 462.753 143.816 504.204 155.044 546.682C155.142 547.174 155.239 547.665 155.337 548.157L317.165 517.874L280.173 286.105Z" fill="#8383D6"/>
<path d="M189.403 204.468C189.452 204.714 189.501 204.96 189.549 205.206L189.598 205.452L189.647 205.697C189.695 205.943 189.744 206.189 189.744 206.189C189.744 206.189 189.744 206.189 189.793 206.435C189.842 206.681 189.89 206.926 189.742 207.467C189.791 207.713 189.839 207.958 189.691 208.499L189.74 208.744L189.788 208.99C189.837 209.236 189.64 209.531 189.689 209.776C189.54 210.317 189.441 211.103 189.292 211.643C189.341 211.889 189.341 211.889 189.144 212.183C188.896 213.51 188.402 214.885 187.86 216.014C187.662 216.309 187.711 216.554 187.514 216.849C187.563 217.095 187.317 217.143 187.317 217.143C187.12 217.438 187.169 217.684 186.923 217.732C186.529 218.322 186.135 218.911 185.692 219.254C185.495 219.548 185.298 219.843 185.052 219.891C184.215 220.824 183.378 221.756 182.492 222.442C181.852 223.08 180.917 223.521 180.278 224.158C180.032 224.207 179.835 224.502 179.835 224.502C179.589 224.55 179.589 224.55 179.392 224.845L179.146 224.894L178.9 224.942C178.654 224.991 178.457 225.286 178.211 225.334C177.031 225.824 175.605 226.362 174.13 226.654C173.885 226.703 173.393 226.8 173.147 226.849C169.657 227.285 166.021 226.984 162.928 225.553C157.084 223.135 152.228 217.967 150.864 211.084L149.939 206.414L147.26 192.896L146.432 188.717L145.262 182.818C145.214 182.572 145.116 182.081 145.068 181.835C145.019 181.589 145.019 181.589 144.97 181.343C144.921 181.097 144.921 181.097 144.873 180.852C144.824 180.606 144.824 180.606 144.775 180.36L144.727 180.114L144.678 179.868C144.678 179.868 144.678 179.868 144.629 179.623C144.58 179.377 144.58 179.377 144.532 179.131L144.483 178.885L144.434 178.639C144.386 178.394 144.337 178.148 144.534 177.853C144.485 177.608 144.485 177.608 144.437 177.362C144.388 177.116 144.388 177.116 144.339 176.87C144.29 176.624 144.29 176.624 144.242 176.379C144.193 176.133 144.193 176.133 144.144 175.887C144.096 175.641 144.096 175.641 144.293 175.347C144.244 175.101 144.244 175.101 144.441 174.806C144.392 174.561 144.589 174.266 144.541 174.02C144.541 174.02 144.541 174.02 144.492 173.775C144.443 173.529 144.64 173.234 144.592 172.988C144.592 172.988 144.592 172.988 144.543 172.743C144.494 172.497 144.691 172.202 144.643 171.957C146.62 165.178 152.231 159.979 159.311 158.321C167.422 156.713 175.327 160.511 179.689 167.054C180.865 169.12 181.795 171.235 182.577 173.89L188.424 202.108C189.257 203.731 189.354 204.223 189.403 204.468Z" fill="#FF8772"/>
<path d="M140.466 196.758C135.046 197.884 131.565 203.191 132.692 208.611C133.818 214.031 139.125 217.512 144.545 216.385C149.965 215.259 153.446 209.952 152.319 204.532C151.193 199.112 145.886 195.631 140.466 196.758Z" fill="#FF8772"/>
<path d="M184.133 183.033L176.808 184.741C175.825 184.935 174.696 184.393 174.55 183.656C174.355 182.672 174.946 181.789 176.175 181.545L183.5 179.838C184.483 179.643 185.613 180.186 185.759 180.923C185.954 181.906 185.117 182.839 184.133 183.033Z" fill="#2D1A14"/>
<path d="M168.451 186.397L161.126 188.104C160.143 188.299 159.014 187.756 158.867 187.019C158.673 186.036 159.264 185.152 160.493 184.909L167.818 183.201C168.801 183.007 169.93 183.549 170.077 184.287C170.271 185.27 169.68 186.153 168.451 186.397Z" fill="#2D1A14"/>
<path d="M177.663 201.942L177.711 202.188C178.004 203.662 176.035 205.33 173.577 205.817C171.119 206.304 168.663 205.513 168.371 204.039L168.322 203.793L177.663 201.942Z" fill="white"/>
<path d="M169.463 197.947L175.504 200.071L172.532 185.077" stroke="#472A1C" stroke-width="0.2911" stroke-miterlimit="10" stroke-linecap="round" stroke-linejoin="round"/>
<path d="M170.754 190.283C170.9 191.02 169.326 192.099 167.162 192.783C166.425 192.929 165.736 193.321 164.999 193.467C164.016 193.662 163.278 193.808 162.492 193.709C160.231 193.901 158.61 193.456 158.71 192.67C158.564 191.933 159.696 191.197 161.613 190.562C162.548 190.121 163.531 189.926 164.514 189.732C165.497 189.537 166.48 189.342 167.266 189.442C169.036 189.346 170.608 189.546 170.754 190.283Z" fill="white"/>
<path d="M167.756 190.622C167.902 191.359 167.557 192.194 166.917 192.832C166.179 192.978 165.49 193.37 164.753 193.516C163.77 193.711 163.033 193.857 162.246 193.757C161.657 193.363 161.068 192.969 160.922 192.232C160.825 191.74 160.973 191.2 161.122 190.659C162.056 190.219 163.039 190.024 164.022 189.829C165.006 189.634 165.989 189.439 166.775 189.539C167.315 189.687 167.658 190.13 167.756 190.622Z" fill="#2D1A14"/>
<path d="M185.256 187.409C185.402 188.146 184.025 188.93 182.353 189.517C181.861 189.614 181.124 189.761 180.632 189.858C179.895 190.004 179.158 190.15 178.42 190.296C176.651 190.392 175.325 190.144 175.227 189.652C175.13 189.16 176.015 188.474 177.687 187.887C178.376 187.495 179.113 187.349 180.096 187.154C180.834 187.008 181.571 186.862 182.357 186.962C183.783 186.424 185.11 186.672 185.256 187.409Z" fill="white"/>
<path d="M182.749 187.65C182.895 188.388 182.747 188.928 182.107 189.566C181.615 189.663 180.878 189.809 180.387 189.907C179.649 190.053 178.912 190.199 178.174 190.345C177.634 190.197 177.242 189.508 177.145 189.016C177.047 188.525 177.196 187.985 177.393 187.69C178.081 187.298 178.819 187.152 179.802 186.957C180.539 186.811 181.277 186.665 182.063 186.765C182.554 186.667 182.652 187.159 182.749 187.65Z" fill="#2D1A14"/>
<path d="M178.073 164.054C174.933 161.1 170.956 159.078 166.731 158.383C162.998 157.59 158.967 157.878 155.427 159.346C151.886 160.814 148.589 163.511 147.256 167.096C147.404 166.556 147.109 166.359 146.815 166.162C145.681 168.174 144.793 170.139 143.905 172.103C143.954 172.348 143.708 172.397 143.757 172.643C143.803 174.166 143.604 175.739 143.65 177.262L147.645 197.417L147.448 197.712C149.41 199.878 151.814 201.7 153.579 204.16L150.9 190.641C152.182 188.088 152.875 185.141 153.077 182.291C153.077 182.291 153.077 182.291 153.028 182.045C158.039 182.84 163.008 179.557 166.994 176.468C171.954 178.294 179.423 178.602 183.312 175.022C183.073 171.237 181.213 167.008 178.073 164.054Z" fill="#2D1A14"/>
<path d="M151.604 181.306C148.409 181.939 145.17 179.771 144.536 176.576L143.757 172.643C143.124 169.448 145.291 166.208 148.487 165.575C151.682 164.942 154.922 167.109 155.555 170.305L156.334 174.238C156.968 177.433 154.8 180.672 151.604 181.306Z" fill="#2D1A14"/>
<path d="M150.353 165.971C148.292 164.592 145.588 165.127 143.865 166.746C142.143 168.365 141.647 171.018 141.593 173.327C141.786 175.588 142.519 177.997 143.203 180.161C144.62 184.733 146.234 189.012 147.651 193.584C146.538 184.098 147.831 175.156 150.353 165.971Z" fill="#2D1A14"/>
<path d="M238.402 89.5128C231.478 86.7979 223.418 87.3735 217.219 90.9009C211.267 94.3796 206.834 100.367 203.727 106.603C200.62 112.838 198.102 119.468 194.701 125.507C187.553 138.418 176.036 148.62 162.561 154.1C159.709 155.176 156.611 156.301 153.905 158.115C151.199 159.928 148.445 161.496 148.046 164.64C139.789 165.51 138.303 172.191 140.995 178.044C142.22 180.356 143.641 182.373 144.374 184.782C144.423 185.028 144.423 185.028 144.472 185.274C144.961 186.454 145.499 187.88 145.743 189.109C146.524 191.764 147.06 194.468 147.842 197.123C148.579 196.977 149.757 197.765 150.495 197.619C150.256 193.835 150.508 189.953 150.515 186.12C150.765 183.516 150.818 181.206 151.609 178.75C151.56 178.505 151.757 178.21 152.003 178.161C152.2 177.867 152.692 177.769 152.937 177.721C156.919 177.187 161.343 176.31 163.168 172.628C163.609 173.562 164.049 174.497 164.933 175.088C166.159 176.122 167.829 176.813 169.45 177.258C178.292 179.338 188.223 176.603 194.574 169.98C210.737 172.908 225.839 164.039 237.653 152.757C246.661 144.075 254.15 132.884 255.204 120.158C256.356 107.923 250.041 94.1034 238.402 89.5128Z" fill="#2D1A14"/>
<path d="M290.857 330.99L307.273 413.823" stroke="#472A1C" stroke-width="0.4269" stroke-miterlimit="10" stroke-linecap="round" stroke-linejoin="round"/>
<path d="M147.372 634.289L133.603 499.075L138.909 331.216C139.43 314.508 126.137 300.283 109.43 299.762C92.7226 299.242 78.4974 312.534 77.9768 329.242L72.5666 500.443C72.4647 502.507 72.6574 504.768 73.0958 506.98L106.619 642.621L147.421 634.535L147.372 634.289Z" fill="#8383D6"/>
<path d="M142.912 374.615L131.29 473.223" stroke="#472A1C" stroke-width="0.4269" stroke-miterlimit="10" stroke-linecap="round" stroke-linejoin="round"/>
<path opacity="0.4" d="M135.869 121.739C134.538 120.916 133.3 119.946 132.178 118.846C131.386 118.061 130.781 117.103 130.41 116.044C129.746 113.979 130.519 111.619 132.676 110.918C133.814 110.561 135.052 110.78 136.004 111.508V111.508C136.956 110.781 138.194 110.562 139.333 110.918C141.489 111.619 142.267 113.979 141.603 116.044C141.235 117.102 140.634 118.06 139.846 118.846C138.723 119.945 137.485 120.915 136.154 121.739L136.009 121.833L135.869 121.739Z" fill="#FF3030"/>
<path d="M136.006 121.833L135.869 121.739C134.536 120.916 133.296 119.946 132.173 118.846C131.377 118.062 130.769 117.104 130.394 116.044C129.736 113.979 130.509 111.619 132.665 110.918C133.804 110.561 135.058 110.78 136.006 111.515V121.833Z" fill="#FF3030"/>
<path d="M139.634 114.833V114.833C139.517 114.825 139.408 114.767 139.333 114.671C139.257 114.575 139.222 114.45 139.235 114.326V114.326C139.248 113.916 139.015 113.543 138.655 113.398C138.427 113.336 138.289 113.089 138.346 112.846C138.4 112.606 138.625 112.457 138.85 112.511C138.879 112.516 138.906 112.526 138.931 112.541C139.652 112.819 140.118 113.565 140.081 114.382C140.08 114.505 140.032 114.623 139.948 114.708C139.863 114.793 139.75 114.838 139.634 114.833Z" fill="#FF3030"/>
</g>
<g filter="url(#filter0_d_2_3056)">
<circle cx="78.5" cy="188.5" r="25.5" fill="white"/>
<circle cx="78.5" cy="188.5" r="25" stroke="#C6FFDD"/>
</g>
<path opacity="0.4" d="M78.776 197.837C76.493 196.427 74.3707 194.765 72.4479 192.88C71.0905 191.534 70.0539 189.89 69.4172 188.075C68.2796 184.535 69.6038 180.489 73.3011 179.288C75.2526 178.676 77.3751 179.052 79.0071 180.3V180.3C80.6397 179.053 82.7614 178.677 84.713 179.288C88.4103 180.489 89.7435 184.535 88.6058 188.075C87.9743 189.889 86.9438 191.532 85.5929 192.88C83.6684 194.762 81.5463 196.425 79.2648 197.837L79.016 198L78.776 197.837Z" fill="#52D22E"/>
<path d="M79.0109 198L78.776 197.837C76.4901 196.427 74.3649 194.765 72.439 192.88C71.0752 191.536 70.0324 189.892 69.3905 188.075C68.2618 184.535 69.586 180.489 73.2834 179.288C75.2349 178.676 77.3853 179.052 79.0109 180.311V198Z" fill="#52D22E"/>
<path d="M85.2304 185.999V185.999C85.0296 185.986 84.8425 185.886 84.7131 185.722C84.5836 185.557 84.5232 185.343 84.5459 185.13V185.13C84.5677 184.428 84.168 183.789 83.5517 183.54C83.1609 183.433 82.9243 183.01 83.022 182.592C83.1148 182.182 83.4993 181.926 83.8858 182.019C83.9346 182.027 83.9816 182.045 84.0244 182.071C85.2601 182.547 86.0601 183.826 85.9965 185.226C85.9944 185.438 85.9117 185.64 85.7673 185.786C85.6229 185.932 85.4291 186.009 85.2304 185.999Z" fill="#52D22E"/>
<g filter="url(#filter1_d_2_3056)">
<circle cx="284.5" cy="188.5" r="25.5" fill="white"/>
<circle cx="284.5" cy="188.5" r="25" stroke="#FFF9C6"/>
</g>
<path opacity="0.4" d="M275 187.078C275.05 189.416 275.19 193.415 275.21 193.856C275.281 194.799 275.642 195.752 276.204 196.424C276.986 197.367 277.949 197.788 279.292 197.788C281.148 197.798 283.194 197.798 285.181 197.798C287.176 197.798 289.112 197.798 290.747 197.788C292.071 197.788 293.064 197.356 293.836 196.424C294.398 195.752 294.759 194.789 294.81 193.856C294.83 193.485 294.93 189.144 294.99 187.078H275Z" fill="#FFE600"/>
<path d="M284.245 191.384V192.678C284.245 193.092 284.581 193.428 284.995 193.428C285.409 193.428 285.745 193.092 285.745 192.678V191.384C285.745 190.97 285.409 190.634 284.995 190.634C284.581 190.634 284.245 190.97 284.245 191.384" fill="#FFE600"/>
<path fill-rule="evenodd" clip-rule="evenodd" d="M283.211 190.556C283.111 190.919 282.762 191.151 282.384 191.101C279.833 190.745 277.395 189.84 275.337 188.481C275.126 188.343 275 188.107 275 187.855V184.389C275 182.289 276.712 180.581 278.817 180.581H280.784C280.972 179.129 282.202 178 283.704 178H286.286C287.787 178 289.018 179.129 289.206 180.581H291.183C293.282 180.581 294.99 182.289 294.99 184.389V187.855C294.99 188.107 294.863 188.342 294.654 188.481C292.592 189.846 290.144 190.755 287.576 191.11C287.541 191.115 287.507 191.117 287.473 191.117C287.134 191.117 286.831 190.888 286.746 190.552C286.544 189.756 285.821 189.199 284.99 189.199C284.148 189.199 283.433 189.744 283.211 190.556ZM286.286 179.5H283.704C283.031 179.5 282.469 179.96 282.301 180.581H287.688C287.52 179.96 286.958 179.5 286.286 179.5Z" fill="#FFE600"/>
<path opacity="0.4" d="M69.5275 276.833H64.4719C62.4948 276.833 61.1667 275.447 61.1667 273.383V268.618C61.1667 266.554 62.4948 265.167 64.4719 265.167H69.5281C71.5051 265.167 72.8333 266.554 72.8333 268.618V273.383C72.8333 275.447 71.5051 276.833 69.5275 276.833" fill="#0A125A"/>
<path fill-rule="evenodd" clip-rule="evenodd" d="M66.5596 269.06C66.5596 269.86 65.9091 270.51 65.11 270.51C64.3102 270.51 63.6604 269.86 63.6604 269.06C63.6604 268.261 64.3102 267.61 65.11 267.61C65.9091 267.61 66.5596 268.261 66.5596 269.06ZM71.3169 272.218C71.4528 272.35 71.5502 272.5 71.6144 272.661C71.8086 273.146 71.7077 273.729 71.5 274.21C71.2539 274.782 70.7825 275.214 70.1887 275.403C69.925 275.488 69.6485 275.524 69.3726 275.524H64.4837C63.9972 275.524 63.5667 275.411 63.2138 275.199C62.9927 275.066 62.9536 274.759 63.1175 274.56C63.3917 274.227 63.6624 273.894 63.9354 273.557C64.4557 272.913 64.8063 272.726 65.196 272.89C65.354 272.958 65.5127 273.06 65.676 273.167C66.1112 273.456 66.7161 273.851 67.513 273.422C68.0576 273.124 68.3738 272.614 68.649 272.171L68.6545 272.162C68.6731 272.132 68.6914 272.102 68.7097 272.073C68.8033 271.922 68.8955 271.773 68.9999 271.636C69.1294 271.466 69.61 270.935 70.2313 271.313C70.6274 271.551 70.9605 271.873 71.3169 272.218Z" fill="#0A125A"/>
<path opacity="0.4" d="M221.869 235.739C220.538 234.916 219.3 233.946 218.178 232.846C217.386 232.061 216.781 231.103 216.41 230.044C215.746 227.979 216.519 225.619 218.676 224.918C219.814 224.561 221.052 224.78 222.004 225.508V225.508C222.956 224.781 224.194 224.562 225.333 224.918C227.489 225.619 228.267 227.979 227.603 230.044C227.235 231.102 226.634 232.06 225.846 232.846C224.723 233.945 223.485 234.915 222.154 235.739L222.009 235.833L221.869 235.739Z" fill="#52D22E"/>
<path d="M222.006 235.833L221.869 235.739C220.536 234.916 219.296 233.946 218.173 232.846C217.377 232.062 216.769 231.104 216.394 230.044C215.736 227.979 216.509 225.619 218.665 224.918C219.804 224.561 221.058 224.78 222.006 225.514V235.833Z" fill="#52D22E"/>
<path d="M225.634 228.833V228.833C225.517 228.825 225.408 228.767 225.333 228.671C225.257 228.575 225.222 228.45 225.235 228.326V228.326C225.248 227.916 225.015 227.543 224.655 227.398C224.427 227.336 224.289 227.089 224.346 226.846C224.4 226.606 224.625 226.457 224.85 226.511C224.879 226.516 224.906 226.526 224.931 226.541C225.652 226.819 226.118 227.565 226.081 228.382C226.08 228.505 226.032 228.623 225.948 228.708C225.863 228.793 225.75 228.838 225.634 228.833Z" fill="#52D22E"/>
<defs>
<filter id="filter0_d_2_3056" x="33" y="157" width="91" height="91" filterUnits="userSpaceOnUse" color-interpolation-filters="sRGB">
<feFlood flood-opacity="0" result="BackgroundImageFix"/>
<feColorMatrix in="SourceAlpha" type="matrix" values="0 0 0 0 0 0 0 0 0 0 0 0 0 0 0 0 0 0 127 0" result="hardAlpha"/>
<feOffset dy="14"/>
<feGaussianBlur stdDeviation="10"/>
<feColorMatrix type="matrix" values="0 0 0 0 0.651319 0 0 0 0 0.941667 0 0 0 0 0.549306 0 0 0 0.4 0"/>
<feBlend mode="normal" in2="BackgroundImageFix" result="effect1_dropShadow_2_3056"/>
<feBlend mode="normal" in="SourceGraphic" in2="effect1_dropShadow_2_3056" result="shape"/>
</filter>
<filter id="filter1_d_2_3056" x="239" y="157" width="91" height="91" filterUnits="userSpaceOnUse" color-interpolation-filters="sRGB">
<feFlood flood-opacity="0" result="BackgroundImageFix"/>
<feColorMatrix in="SourceAlpha" type="matrix" values="0 0 0 0 0 0 0 0 0 0 0 0 0 0 0 0 0 0 127 0" result="hardAlpha"/>
<feOffset dy="14"/>
<feGaussianBlur stdDeviation="10"/>
<feColorMatrix type="matrix" values="0 0 0 0 0.9875 0 0 0 0 0.959109 0 0 0 0 0.703594 0 0 0 0.4 0"/>
<feBlend mode="normal" in2="BackgroundImageFix" result="effect1_dropShadow_2_3056"/>
<feBlend mode="normal" in="SourceGraphic" in2="effect1_dropShadow_2_3056" result="shape"/>
</filter>
</defs>
</svg>
