<svg width="475" height="728" viewBox="0 0 475 728" fill="none" xmlns="http://www.w3.org/2000/svg">
<circle cx="237.5" cy="237.5" r="237.5" fill="white"/>
<mask id="mask0_70_389" style="mask-type:alpha" maskUnits="userSpaceOnUse" x="0" y="0" width="475" height="475">
<circle cx="237.5" cy="237.5" r="237.5" fill="white"/>
</mask>
<g mask="url(#mask0_70_389)">
<path d="M541.653 561.336L475.569 441.855L409.694 287.336C403.038 271.795 385.016 264.638 369.721 271.246C354.18 277.902 347.023 295.924 353.631 311.219L421.122 468.739C422.003 470.608 422.933 472.722 424.306 474.494L510.605 583.838L541.653 561.336Z" fill="#8383D6"/>
<path d="M439.813 515.358L401.147 425.95C389.303 398.41 356.891 385.675 329.105 397.568L294.286 412.643C266.5 424.536 253.519 456.996 265.609 484.487L307.995 582.354C319.839 609.894 352.251 622.629 380.037 610.736L414.856 595.661C422.626 592.333 429.072 587.48 434.291 581.592C437.327 559.532 439.086 537.471 439.813 515.358Z" fill="#F7B98F"/>
<path d="M276.603 211.277C279.099 217.424 281.913 238.069 283.425 244.411C285.62 254.194 287.716 263.485 282.247 271.977C287.594 277.048 294.911 280.452 302.38 280.76C309.603 281.116 317.076 278.869 323.128 274.604C324.703 273.526 326.18 271.956 327.706 270.632C329.428 269.013 331.397 267.346 333.12 265.727C320.956 252.044 309.927 236.349 308.878 218.164C304.307 218.304 297.527 217.604 292.956 217.743C290.941 217.887 288.877 217.785 286.911 218.175C284.01 219.005 279.896 211.135 276.603 211.277Z" fill="#FF8772"/>
<path d="M311.851 231.88C310.483 227.553 309.312 222.932 309.172 218.361C304.602 218.501 297.821 217.801 293.251 217.94C291.236 218.084 289.172 217.982 287.206 218.372C287.206 218.372 287.206 218.372 286.96 218.421C293.632 225.017 302.42 229.406 311.851 231.88Z" fill="#2D1A14"/>
<path d="M232.544 396.269C231.616 392.876 230.64 389.238 229.712 385.846C229.612 386.632 229.218 387.221 229.118 388.007C230.097 390.367 231.173 393.219 232.544 396.269Z" fill="#5A525D"/>
<path d="M408.173 286.105C408.173 286.105 392.153 258.115 358.831 260.12L358.782 259.875L357.553 260.118C353.277 260.455 348.607 261.38 343.789 262.846L332.482 265.087C317.294 267.075 302.205 268.277 287.114 270.757C285.639 271.049 284.165 271.342 282.69 271.634C278.511 272.462 274.333 273.29 270.203 274.364C270.203 274.364 269.957 274.413 269.711 274.462C267.745 274.851 266.073 275.438 264.156 276.074C262.238 276.709 260.566 277.296 258.648 277.931C252.895 279.838 247.486 282.187 242.222 285.274C241.288 285.715 240.402 286.401 239.713 286.793C239.27 287.136 238.779 287.234 238.336 287.577C237.204 288.312 235.876 289.342 234.498 290.125C234.498 290.125 234.498 290.125 234.252 290.174C234.252 290.174 234.253 290.174 234.007 290.223C222.592 298.36 210.189 309.248 209.967 323.597C209.612 357.898 228.522 391.446 241.246 422.133C257.981 462.753 271.816 504.204 283.044 546.682C283.142 547.174 283.239 547.665 283.337 548.157L445.165 517.874L408.173 286.105Z" fill="#8383D6"/>
<path d="M317.403 204.469C317.452 204.714 317.501 204.96 317.549 205.206L317.598 205.452L317.647 205.697C317.695 205.943 317.744 206.189 317.744 206.189C317.744 206.189 317.744 206.189 317.793 206.435C317.842 206.681 317.89 206.926 317.742 207.467C317.791 207.713 317.839 207.958 317.691 208.499L317.74 208.744L317.788 208.99C317.837 209.236 317.64 209.531 317.689 209.776C317.54 210.317 317.441 211.103 317.292 211.643C317.341 211.889 317.341 211.889 317.144 212.183C316.896 213.51 316.402 214.885 315.86 216.014C315.663 216.309 315.711 216.554 315.514 216.849C315.563 217.095 315.317 217.143 315.317 217.143C315.12 217.438 315.169 217.684 314.923 217.733C314.529 218.322 314.135 218.911 313.692 219.254C313.495 219.548 313.298 219.843 313.052 219.891C312.215 220.824 311.378 221.756 310.492 222.442C309.852 223.08 308.918 223.521 308.278 224.158C308.032 224.207 307.835 224.502 307.835 224.502C307.589 224.55 307.589 224.55 307.392 224.845L307.146 224.894L306.9 224.942C306.654 224.991 306.457 225.286 306.211 225.334C305.031 225.824 303.605 226.362 302.13 226.654C301.885 226.703 301.393 226.8 301.147 226.849C297.657 227.285 294.021 226.984 290.928 225.553C285.084 223.135 280.228 217.967 278.864 211.084L277.939 206.414L275.26 192.896L274.432 188.717L273.262 182.818C273.214 182.572 273.116 182.081 273.068 181.835C273.019 181.589 273.019 181.589 272.97 181.343C272.921 181.097 272.921 181.097 272.873 180.852C272.824 180.606 272.824 180.606 272.775 180.36L272.727 180.114L272.678 179.868C272.678 179.868 272.678 179.868 272.629 179.623C272.581 179.377 272.581 179.377 272.532 179.131L272.483 178.885L272.434 178.639C272.386 178.394 272.337 178.148 272.534 177.853C272.485 177.608 272.485 177.608 272.437 177.362C272.388 177.116 272.388 177.116 272.339 176.87C272.29 176.624 272.29 176.624 272.242 176.379C272.193 176.133 272.193 176.133 272.144 175.887C272.096 175.641 272.096 175.641 272.293 175.347C272.244 175.101 272.244 175.101 272.441 174.806C272.392 174.561 272.589 174.266 272.541 174.02C272.541 174.02 272.541 174.02 272.492 173.775C272.443 173.529 272.64 173.234 272.592 172.988C272.592 172.988 272.592 172.988 272.543 172.743C272.494 172.497 272.691 172.202 272.643 171.957C274.62 165.178 280.231 159.979 287.311 158.321C295.422 156.713 303.327 160.511 307.689 167.054C308.865 169.121 309.795 171.235 310.577 173.89L316.424 202.108C317.257 203.731 317.354 204.223 317.403 204.469Z" fill="#FF8772"/>
<path d="M268.466 196.758C263.046 197.884 259.565 203.191 260.692 208.611C261.818 214.031 267.125 217.512 272.545 216.385C277.965 215.259 281.446 209.952 280.319 204.532C279.193 199.112 273.886 195.631 268.466 196.758Z" fill="#FF8772"/>
<path d="M312.133 183.033L304.808 184.741C303.825 184.935 302.696 184.393 302.549 183.656C302.355 182.672 302.946 181.789 304.175 181.545L311.5 179.838C312.483 179.643 313.613 180.186 313.759 180.923C313.954 181.906 313.117 182.839 312.133 183.033Z" fill="#2D1A14"/>
<path d="M296.451 186.397L289.126 188.104C288.143 188.299 287.014 187.756 286.867 187.019C286.673 186.036 287.264 185.152 288.493 184.909L295.818 183.201C296.801 183.007 297.93 183.549 298.077 184.287C298.271 185.27 297.68 186.153 296.451 186.397Z" fill="#2D1A14"/>
<path d="M305.663 201.942L305.711 202.188C306.004 203.662 304.035 205.33 301.577 205.817C299.119 206.304 296.663 205.513 296.371 204.039L296.322 203.793L305.663 201.942Z" fill="white"/>
<path d="M297.463 197.947L303.504 200.071L300.532 185.077" stroke="#472A1C" stroke-width="0.2911" stroke-miterlimit="10" stroke-linecap="round" stroke-linejoin="round"/>
<path d="M298.754 190.283C298.9 191.02 297.326 192.099 295.162 192.783C294.425 192.929 293.736 193.321 292.999 193.467C292.016 193.662 291.278 193.808 290.492 193.709C288.231 193.901 286.61 193.456 286.71 192.67C286.564 191.933 287.695 191.197 289.613 190.562C290.548 190.121 291.531 189.926 292.514 189.732C293.497 189.537 294.48 189.342 295.266 189.441C297.036 189.346 298.608 189.546 298.754 190.283Z" fill="white"/>
<path d="M295.756 190.622C295.902 191.359 295.557 192.194 294.917 192.832C294.179 192.978 293.49 193.37 292.753 193.516C291.77 193.711 291.032 193.857 290.246 193.757C289.657 193.363 289.068 192.969 288.922 192.231C288.825 191.74 288.973 191.2 289.122 190.659C290.056 190.219 291.039 190.024 292.022 189.829C293.006 189.634 293.989 189.439 294.775 189.539C295.315 189.687 295.658 190.13 295.756 190.622Z" fill="#2D1A14"/>
<path d="M313.256 187.409C313.402 188.146 312.025 188.93 310.353 189.517C309.861 189.614 309.124 189.761 308.632 189.858C307.895 190.004 307.157 190.15 306.42 190.296C304.651 190.392 303.325 190.144 303.227 189.652C303.13 189.16 304.015 188.474 305.687 187.887C306.376 187.495 307.113 187.349 308.096 187.154C308.834 187.008 309.571 186.862 310.357 186.962C311.783 186.424 313.11 186.672 313.256 187.409Z" fill="white"/>
<path d="M310.749 187.65C310.895 188.388 310.747 188.928 310.107 189.566C309.615 189.663 308.878 189.809 308.387 189.907C307.649 190.053 306.912 190.199 306.174 190.345C305.634 190.197 305.242 189.508 305.145 189.016C305.047 188.525 305.196 187.985 305.393 187.69C306.081 187.298 306.819 187.152 307.802 186.957C308.539 186.811 309.277 186.665 310.063 186.765C310.554 186.667 310.652 187.159 310.749 187.65Z" fill="#2D1A14"/>
<path d="M306.073 164.054C302.933 161.1 298.956 159.078 294.731 158.383C290.998 157.59 286.967 157.878 283.427 159.346C279.886 160.814 276.589 163.511 275.256 167.096C275.404 166.556 275.109 166.359 274.815 166.162C273.681 168.174 272.793 170.139 271.905 172.103C271.954 172.348 271.708 172.397 271.757 172.643C271.803 174.166 271.604 175.739 271.65 177.262L275.645 197.417L275.448 197.712C277.41 199.878 279.814 201.7 281.579 204.16L278.9 190.641C280.182 188.088 280.875 185.141 281.077 182.291C281.077 182.291 281.077 182.291 281.028 182.045C286.039 182.84 291.008 179.557 294.994 176.468C299.954 178.294 307.423 178.602 311.312 175.022C311.073 171.237 309.213 167.008 306.073 164.054Z" fill="#2D1A14"/>
<path d="M279.604 181.306C276.409 181.939 273.17 179.771 272.536 176.576L271.757 172.643C271.124 169.448 273.291 166.208 276.487 165.575C279.682 164.942 282.922 167.109 283.555 170.305L284.334 174.238C284.968 177.433 282.8 180.672 279.604 181.306Z" fill="#2D1A14"/>
<path d="M278.353 165.971C276.292 164.592 273.588 165.127 271.865 166.746C270.143 168.365 269.647 171.018 269.593 173.327C269.786 175.588 270.519 177.997 271.203 180.161C272.62 184.733 274.234 189.012 275.651 193.584C274.538 184.098 275.831 175.156 278.353 165.971Z" fill="#2D1A14"/>
<path d="M366.402 89.5128C359.478 86.7979 351.418 87.3735 345.219 90.9009C339.267 94.3796 334.834 100.367 331.727 106.603C328.62 112.838 326.102 119.468 322.701 125.507C315.553 138.418 304.036 148.62 290.561 154.1C287.709 155.176 284.611 156.301 281.905 158.115C279.199 159.928 276.445 161.496 276.046 164.64C267.789 165.51 266.303 172.191 268.995 178.044C270.22 180.356 271.641 182.373 272.374 184.782C272.423 185.028 272.423 185.028 272.472 185.274C272.961 186.454 273.499 187.88 273.743 189.109C274.524 191.764 275.06 194.468 275.842 197.123C276.579 196.977 277.757 197.765 278.495 197.619C278.256 193.835 278.508 189.953 278.515 186.12C278.765 183.516 278.818 181.206 279.609 178.75C279.56 178.505 279.757 178.21 280.003 178.161C280.2 177.867 280.692 177.769 280.937 177.721C284.919 177.187 289.343 176.31 291.168 172.628C291.609 173.562 292.049 174.497 292.933 175.088C294.159 176.122 295.829 176.813 297.45 177.258C306.292 179.338 316.223 176.603 322.574 169.98C338.737 172.908 353.839 164.039 365.653 152.757C374.661 144.075 382.15 132.884 383.204 120.158C384.356 107.923 378.041 94.1034 366.402 89.5128Z" fill="#2D1A14"/>
<path d="M418.857 330.99L435.273 413.823" stroke="#472A1C" stroke-width="0.4269" stroke-miterlimit="10" stroke-linecap="round" stroke-linejoin="round"/>
<path d="M275.372 634.289L261.603 499.075L266.909 331.216C267.43 314.508 254.137 300.283 237.43 299.762C220.723 299.242 206.497 312.534 205.977 329.242L200.567 500.443C200.465 502.507 200.657 504.768 201.096 506.98L234.619 642.621L275.421 634.535L275.372 634.289Z" fill="#8383D6"/>
<path d="M270.912 374.615L259.29 473.223" stroke="#472A1C" stroke-width="0.4269" stroke-miterlimit="10" stroke-linecap="round" stroke-linejoin="round"/>
<path opacity="0.4" d="M261.527 94.8333H256.472C254.495 94.8333 253.167 93.4467 253.167 91.3825V86.6181C253.167 84.5539 254.495 83.1667 256.472 83.1667H261.528C263.505 83.1667 264.833 84.5539 264.833 86.6181V91.3825C264.833 93.4467 263.505 94.8333 261.527 94.8333" fill="#6270F0"/>
<path fill-rule="evenodd" clip-rule="evenodd" d="M258.56 87.0604C258.56 87.8596 257.909 88.51 257.11 88.51C256.31 88.51 255.66 87.8596 255.66 87.0604C255.66 86.2613 256.31 85.6103 257.11 85.6103C257.909 85.6103 258.56 86.2613 258.56 87.0604ZM263.317 90.2178C263.453 90.3496 263.55 90.5001 263.614 90.6605C263.809 91.1459 263.708 91.7292 263.5 92.2099C263.254 92.7821 262.783 93.2144 262.189 93.4034C261.925 93.4879 261.649 93.5241 261.373 93.5241H256.484C255.997 93.5241 255.567 93.4109 255.214 93.1986C254.993 93.0656 254.954 92.7594 255.118 92.5599C255.392 92.2274 255.662 91.8937 255.935 91.5571C256.456 90.9131 256.806 90.7264 257.196 90.8904C257.354 90.958 257.513 91.0601 257.676 91.1674C258.111 91.4556 258.716 91.8511 259.513 91.4218C260.058 91.1239 260.374 90.6143 260.649 90.1707L260.655 90.1618C260.673 90.1321 260.691 90.1024 260.71 90.0728C260.803 89.9216 260.895 89.7727 261 89.6356C261.129 89.4659 261.61 88.935 262.231 89.313C262.627 89.551 262.96 89.873 263.317 90.2178Z" fill="#6270F0"/>
</g>
<g filter="url(#filter0_d_70_389)">
<circle cx="206.5" cy="188.5" r="25.5" fill="white"/>
<circle cx="206.5" cy="188.5" r="25" stroke="#C6FFDD"/>
</g>
<path opacity="0.4" d="M206.776 197.837C204.493 196.427 202.371 194.765 200.448 192.88C199.091 191.534 198.054 189.89 197.417 188.075C196.28 184.535 197.604 180.489 201.301 179.288C203.253 178.676 205.375 179.052 207.007 180.3V180.3C208.64 179.053 210.761 178.677 212.713 179.288C216.41 180.489 217.744 184.535 216.606 188.075C215.974 189.889 214.944 191.532 213.593 192.88C211.668 194.762 209.546 196.425 207.265 197.837L207.016 198L206.776 197.837Z" fill="#52D22E"/>
<path d="M207.011 198L206.776 197.837C204.49 196.427 202.365 194.765 200.439 192.88C199.075 191.536 198.032 189.892 197.391 188.075C196.262 184.535 197.586 180.489 201.283 179.288C203.235 178.676 205.385 179.052 207.011 180.311V198Z" fill="#52D22E"/>
<path d="M213.23 185.999V185.999C213.03 185.986 212.842 185.886 212.713 185.722C212.584 185.557 212.523 185.343 212.546 185.13V185.13C212.568 184.428 212.168 183.789 211.552 183.54C211.161 183.433 210.924 183.01 211.022 182.592C211.115 182.182 211.499 181.926 211.886 182.019C211.935 182.027 211.982 182.045 212.024 182.071C213.26 182.547 214.06 183.826 213.996 185.226C213.994 185.438 213.912 185.64 213.767 185.786C213.623 185.932 213.429 186.009 213.23 185.999Z" fill="#52D22E"/>
<g filter="url(#filter1_d_70_389)">
<circle cx="412.5" cy="188.5" r="25.5" fill="white"/>
<circle cx="412.5" cy="188.5" r="25" stroke="#FFF9C6"/>
</g>
<path opacity="0.4" d="M403 187.078C403.05 189.416 403.19 193.415 403.21 193.856C403.281 194.799 403.642 195.752 404.204 196.424C404.986 197.367 405.949 197.788 407.292 197.788C409.148 197.798 411.194 197.798 413.181 197.798C415.176 197.798 417.112 197.798 418.747 197.788C420.071 197.788 421.064 197.356 421.836 196.424C422.398 195.752 422.759 194.789 422.81 193.856C422.83 193.485 422.93 189.144 422.99 187.078H403Z" fill="#FFE600"/>
<path d="M412.245 191.384V192.678C412.245 193.092 412.581 193.428 412.995 193.428C413.409 193.428 413.745 193.092 413.745 192.678V191.384C413.745 190.97 413.409 190.634 412.995 190.634C412.581 190.634 412.245 190.97 412.245 191.384" fill="#FFE600"/>
<path fill-rule="evenodd" clip-rule="evenodd" d="M411.211 190.556C411.111 190.919 410.762 191.151 410.384 191.101C407.833 190.745 405.395 189.84 403.337 188.481C403.126 188.343 403 188.107 403 187.855V184.389C403 182.289 404.712 180.581 406.817 180.581H408.784C408.972 179.129 410.202 178 411.704 178H414.286C415.787 178 417.018 179.129 417.206 180.581H419.183C421.282 180.581 422.99 182.289 422.99 184.389V187.855C422.99 188.107 422.863 188.342 422.654 188.481C420.592 189.846 418.144 190.755 415.576 191.11C415.541 191.115 415.507 191.117 415.473 191.117C415.134 191.117 414.831 190.888 414.746 190.552C414.544 189.756 413.821 189.199 412.99 189.199C412.148 189.199 411.433 189.744 411.211 190.556ZM414.286 179.5H411.704C411.031 179.5 410.469 179.96 410.301 180.581H415.688C415.52 179.96 414.958 179.5 414.286 179.5Z" fill="#FFE600"/>
<path opacity="0.4" d="M197.527 276.833H192.472C190.495 276.833 189.167 275.447 189.167 273.382V268.618C189.167 266.554 190.495 265.167 192.472 265.167H197.528C199.505 265.167 200.833 266.554 200.833 268.618V273.382C200.833 275.447 199.505 276.833 197.527 276.833" fill="#6270F0"/>
<path fill-rule="evenodd" clip-rule="evenodd" d="M194.56 269.06C194.56 269.86 193.909 270.51 193.11 270.51C192.31 270.51 191.66 269.86 191.66 269.06C191.66 268.261 192.31 267.61 193.11 267.61C193.909 267.61 194.56 268.261 194.56 269.06ZM199.317 272.218C199.453 272.35 199.55 272.5 199.614 272.66C199.809 273.146 199.708 273.729 199.5 274.21C199.254 274.782 198.783 275.214 198.189 275.403C197.925 275.488 197.649 275.524 197.373 275.524H192.484C191.997 275.524 191.567 275.411 191.214 275.199C190.993 275.066 190.954 274.759 191.118 274.56C191.392 274.227 191.662 273.894 191.935 273.557C192.456 272.913 192.806 272.726 193.196 272.89C193.354 272.958 193.513 273.06 193.676 273.167C194.111 273.456 194.716 273.851 195.513 273.422C196.058 273.124 196.374 272.614 196.649 272.171L196.655 272.162C196.673 272.132 196.691 272.102 196.71 272.073C196.803 271.922 196.895 271.773 197 271.636C197.129 271.466 197.61 270.935 198.231 271.313C198.627 271.551 198.96 271.873 199.317 272.218Z" fill="#6270F0"/>
<path opacity="0.4" d="M349.869 235.739C348.537 234.916 347.299 233.946 346.178 232.846C345.386 232.061 344.781 231.103 344.41 230.044C343.746 227.979 344.519 225.619 346.676 224.918C347.814 224.561 349.052 224.78 350.004 225.508V225.508C350.956 224.781 352.194 224.562 353.333 224.918C355.489 225.619 356.267 227.979 355.603 230.044C355.235 231.102 354.634 232.06 353.846 232.846C352.723 233.945 351.485 234.915 350.154 235.739L350.009 235.833L349.869 235.739Z" fill="#52D22E"/>
<path d="M350.006 235.833L349.869 235.739C348.536 234.916 347.296 233.946 346.173 232.846C345.377 232.062 344.769 231.104 344.394 230.044C343.736 227.979 344.508 225.619 346.665 224.918C347.804 224.561 349.058 224.78 350.006 225.515V235.833Z" fill="#52D22E"/>
<path d="M353.634 228.833V228.833C353.517 228.825 353.408 228.767 353.333 228.671C353.257 228.575 353.222 228.45 353.235 228.326V228.326C353.248 227.916 353.015 227.543 352.655 227.398C352.427 227.336 352.289 227.089 352.346 226.846C352.4 226.606 352.625 226.457 352.85 226.511C352.878 226.516 352.906 226.526 352.931 226.541C353.652 226.819 354.118 227.565 354.081 228.382C354.08 228.505 354.032 228.623 353.948 228.708C353.863 228.793 353.75 228.838 353.634 228.833Z" fill="#52D22E"/>
<path opacity="0.4" d="M201.869 726.739C200.537 725.916 199.299 724.946 198.178 723.846C197.386 723.061 196.781 722.103 196.41 721.044C195.746 718.979 196.519 716.619 198.676 715.918C199.814 715.561 201.052 715.78 202.004 716.508V716.508C202.956 715.781 204.194 715.562 205.333 715.918C207.489 716.619 208.267 718.979 207.603 721.044C207.235 722.102 206.634 723.06 205.846 723.846C204.723 724.945 203.485 725.915 202.154 726.739L202.009 726.833L201.869 726.739Z" fill="#52D22E"/>
<path d="M202.006 726.833L201.869 726.739C200.536 725.916 199.296 724.946 198.173 723.846C197.377 723.062 196.769 722.104 196.394 721.044C195.736 718.979 196.508 716.619 198.665 715.918C199.804 715.561 201.058 715.78 202.006 716.515V726.833Z" fill="#52D22E"/>
<path d="M205.634 719.833V719.833C205.517 719.825 205.408 719.767 205.333 719.671C205.257 719.575 205.222 719.45 205.235 719.326V719.326C205.248 718.916 205.015 718.543 204.655 718.398C204.427 718.336 204.289 718.089 204.346 717.846C204.4 717.606 204.625 717.457 204.85 717.511C204.878 717.516 204.906 717.526 204.931 717.541C205.652 717.819 206.118 718.565 206.081 719.382C206.08 719.505 206.032 719.623 205.948 719.708C205.863 719.793 205.75 719.838 205.634 719.833Z" fill="#52D22E"/>
<defs>
<filter id="filter0_d_70_389" x="161" y="157" width="91" height="91" filterUnits="userSpaceOnUse" color-interpolation-filters="sRGB">
<feFlood flood-opacity="0" result="BackgroundImageFix"/>
<feColorMatrix in="SourceAlpha" type="matrix" values="0 0 0 0 0 0 0 0 0 0 0 0 0 0 0 0 0 0 127 0" result="hardAlpha"/>
<feOffset dy="14"/>
<feGaussianBlur stdDeviation="10"/>
<feColorMatrix type="matrix" values="0 0 0 0 0.651319 0 0 0 0 0.941667 0 0 0 0 0.549306 0 0 0 0.4 0"/>
<feBlend mode="normal" in2="BackgroundImageFix" result="effect1_dropShadow_70_389"/>
<feBlend mode="normal" in="SourceGraphic" in2="effect1_dropShadow_70_389" result="shape"/>
</filter>
<filter id="filter1_d_70_389" x="367" y="157" width="91" height="91" filterUnits="userSpaceOnUse" color-interpolation-filters="sRGB">
<feFlood flood-opacity="0" result="BackgroundImageFix"/>
<feColorMatrix in="SourceAlpha" type="matrix" values="0 0 0 0 0 0 0 0 0 0 0 0 0 0 0 0 0 0 127 0" result="hardAlpha"/>
<feOffset dy="14"/>
<feGaussianBlur stdDeviation="10"/>
<feColorMatrix type="matrix" values="0 0 0 0 0.9875 0 0 0 0 0.959109 0 0 0 0 0.703594 0 0 0 0.4 0"/>
<feBlend mode="normal" in2="BackgroundImageFix" result="effect1_dropShadow_70_389"/>
<feBlend mode="normal" in="SourceGraphic" in2="effect1_dropShadow_70_389" result="shape"/>
</filter>
</defs>
</svg>
