<svg width="46" height="42" viewBox="0 0 46 42" fill="none" xmlns="http://www.w3.org/2000/svg">
<path d="M23.3916 41C34.4373 41 43.3916 32.0457 43.3916 21C43.3916 9.9543 34.4373 1 23.3916 1C12.3459 1 3.39157 9.9543 3.39157 21C3.39157 32.0457 12.3459 41 23.3916 41Z" fill="#FAE0E4"/>
<path d="M1.09643 14.1033C0.88493 13.2358 1.02393 12.3379 1.48793 11.5751C3.01476 9.06374 6.84976 8.10416 7.0121 8.06457C7.34985 7.98224 7.68993 8.18915 7.77226 8.52674C7.81193 8.6894 8.72493 12.5357 7.19826 15.0478L7.19835 15.0482C6.24076 16.6215 4.18101 17.1233 2.60718 16.1662C1.84443 15.7037 1.30793 14.9708 1.09643 14.1033Z" fill="#92D3F5"/>
<path d="M19.1429 16.6533C19.1429 18.0936 17.9739 19.2613 16.5349 19.2613C15.0959 19.2613 13.9269 18.0935 13.9269 16.6533C13.9269 15.2144 15.0959 14.0453 16.5349 14.0453C17.9739 14.0453 19.1429 15.2144 19.1429 16.6533Z" fill="black"/>
<path d="M34.791 16.6533C34.791 18.0936 33.622 19.2613 32.183 19.2613C30.7439 19.2613 29.575 18.0935 29.575 16.6533C29.575 15.2144 30.7439 14.0453 32.183 14.0453C33.622 14.0453 34.791 15.2144 34.791 16.6533Z" fill="black"/>
<path d="M16.1003 31.4319C17.7318 28.1001 21.1632 26.0451 24.7936 26.2159C28.1269 26.3728 31.1333 28.3828 32.6176 31.4319" stroke="black" stroke-width="2" stroke-miterlimit="10" stroke-linecap="round" stroke-linejoin="round"/>
<path d="M13.1865 10.7854C13.6101 10.9832 15.4709 11.7945 17.6757 11.0746C19.4644 10.4906 20.4376 9.23885 20.7528 8.79358" stroke="black" stroke-width="2" stroke-miterlimit="10" stroke-linecap="round" stroke-linejoin="round"/>
<path d="M35.5314 10.7854C35.1079 10.9832 33.2471 11.7945 31.0422 11.0746C29.2535 10.4906 28.2803 9.23885 27.9651 8.79358" stroke="black" stroke-width="2" stroke-miterlimit="10" stroke-linecap="round" stroke-linejoin="round"/>
<path d="M1.1006 13.8054C0.879959 12.9004 1.02496 11.9637 1.50901 11.1679C3.1018 8.54811 7.10248 7.54708 7.27183 7.50578C7.62417 7.41989 7.97895 7.63575 8.06484 7.98791C8.10622 8.15761 9.05866 12.17 7.46604 14.7907L7.46613 14.7911C6.46717 16.4324 4.31844 16.9559 2.67661 15.9574C1.88091 15.475 1.32123 14.7104 1.1006 13.8054Z" stroke="black" stroke-width="2" stroke-miterlimit="10"/>
<path d="M12.1854 5.13038C15.5573 2.53994 19.7783 1 24.359 1C35.4047 1 44.359 9.95432 44.359 21C44.359 32.0457 35.4047 41 24.359 41C13.3133 41 4.35898 32.0457 4.35898 21C4.35898 20.6557 4.36767 20.3136 4.38488 19.9736" stroke="black" stroke-width="2" stroke-miterlimit="10" stroke-linecap="round"/>
</svg>
