<svg width="40" height="37" viewBox="0 0 40 37" fill="none" xmlns="http://www.w3.org/2000/svg">
<path d="M16.8751 14.6966C16.8751 15.9568 15.8521 16.9786 14.5931 16.9786C13.3339 16.9786 12.3111 15.9568 12.3111 14.6966C12.3111 13.4375 13.3339 12.4146 14.5931 12.4146C15.8521 12.4146 16.8751 13.4375 16.8751 14.6966Z" fill="black"/>
<path d="M30.5671 14.6966C30.5671 15.9568 29.5442 16.9786 28.2851 16.9786C27.026 16.9786 26.0031 15.9568 26.0031 14.6966C26.0031 13.4375 27.026 12.4146 28.2851 12.4146C29.5442 12.4146 30.5671 13.4375 30.5671 14.6966Z" fill="black"/>
<path d="M14.2127 27.628C15.6404 24.7126 18.6428 22.9145 21.8194 23.0639C24.736 23.2012 27.3667 24.96 28.6654 27.628" stroke="black" stroke-width="2" stroke-miterlimit="10" stroke-linecap="round" stroke-linejoin="round"/>
<path d="M11.6632 9.5623C12.0338 9.73535 13.662 10.4453 15.5912 9.81537C17.1564 9.30436 18.0079 8.20907 18.2837 7.81946" stroke="black" stroke-width="2" stroke-miterlimit="10" stroke-linecap="round" stroke-linejoin="round"/>
<path d="M31.215 9.5623C30.8444 9.73535 29.2161 10.4453 27.2869 9.81537C25.7218 9.30436 24.8702 8.20907 24.5945 7.81946" stroke="black" stroke-width="2" stroke-miterlimit="10" stroke-linecap="round" stroke-linejoin="round"/>
<path d="M1.08802 12.2047C0.894964 11.4128 1.02184 10.5932 1.44538 9.8969C2.83908 7.60455 6.33967 6.72865 6.48785 6.69251C6.79615 6.61736 7.10658 6.80623 7.18173 7.11438C7.21794 7.26286 8.05133 10.7737 6.65778 13.0668L6.65786 13.0671C5.78378 14.5033 3.90363 14.9614 2.46704 14.0876C1.7708 13.6656 1.28108 12.9965 1.08802 12.2047Z" stroke="black" stroke-width="2" stroke-miterlimit="10"/>
<path d="M10.7873 4.61408C13.7377 2.34745 17.431 1 21.4391 1C31.1041 1 38.9391 8.83503 38.9391 18.5C38.9391 28.165 31.1041 36 21.4391 36C11.7741 36 3.93912 28.165 3.93912 18.5C3.93912 18.1988 3.94672 17.8994 3.96178 17.6019" stroke="black" stroke-width="2" stroke-miterlimit="10" stroke-linecap="round"/>
</svg>
