<svg width="42" height="42" viewBox="0 0 42 42" fill="none" xmlns="http://www.w3.org/2000/svg">
<path d="M21 41C32.0457 41 41 32.0457 41 21C41 9.9543 32.0457 1 21 1C9.9543 1 1 9.9543 1 21C1 32.0457 9.9543 41 21 41Z" fill="#DAFBD0"/>
<path d="M33.6913 25.9044C33.7018 27.2433 33.4446 28.5707 32.9348 29.8088C22.0739 32.4436 10.8218 30.1044 9.03047 29.6957C8.54455 28.4912 8.29942 27.2032 8.30873 25.9044H8.40438C8.40438 25.9044 21.2739 29.0262 33.5261 25.9653L33.6913 25.9044Z" fill="white"/>
<path d="M32.9349 29.8087C31.3783 33.5218 27.4131 36.0957 21.0305 36.0957C14.587 36.0957 10.5696 33.4609 9.03052 29.6957C10.8218 30.1044 22.0739 32.4435 32.9349 29.8087Z" fill="#EA5A47"/>
<path d="M21 41C32.0457 41 41 32.0457 41 21C41 9.9543 32.0457 1 21 1C9.9543 1 1 9.9543 1 21C1 32.0457 9.9543 41 21 41Z" stroke="black" stroke-width="2" stroke-linecap="round" stroke-linejoin="round"/>
<path d="M33.6913 25.9044C33.7018 27.2433 33.4446 28.5707 32.9348 29.8088C22.0739 32.4436 10.8218 30.1044 9.03047 29.6957C8.54455 28.4912 8.29942 27.2032 8.30873 25.9044H8.40438C8.40438 25.9044 21.2739 29.0262 33.5261 25.9653L33.6913 25.9044Z" stroke="black" stroke-width="2" stroke-linecap="round" stroke-linejoin="round"/>
<path d="M32.9349 29.8087C31.3783 33.5218 27.4131 36.0957 21.0305 36.0957C14.587 36.0957 10.5696 33.4609 9.03052 29.6957C10.8218 30.1044 22.0739 32.4435 32.9349 29.8087Z" stroke="black" stroke-width="2" stroke-linecap="round" stroke-linejoin="round"/>
<path d="M15.7826 16.6522C15.7826 18.0928 14.6132 19.2608 13.1739 19.2608C11.7346 19.2608 10.5652 18.0928 10.5652 16.6522C10.5652 15.2128 11.7346 14.0435 13.1739 14.0435C14.6132 14.0435 15.7826 15.2128 15.7826 16.6522Z" fill="black"/>
<path d="M31.4348 16.6522C31.4348 18.0928 30.2655 19.2608 28.8261 19.2608C27.3867 19.2608 26.2174 18.0928 26.2174 16.6522C26.2174 15.2128 27.3867 14.0435 28.8261 14.0435C30.2655 14.0435 31.4348 15.2128 31.4348 16.6522Z" fill="black"/>
</svg>
