<svg width="37" height="37" viewBox="0 0 37 37" fill="none" xmlns="http://www.w3.org/2000/svg">
<path d="M18.5 36C28.165 36 36 28.165 36 18.5C36 8.83502 28.165 1 18.5 1C8.83502 1 1 8.83502 1 18.5C1 28.165 8.83502 36 18.5 36Z" stroke="black" stroke-width="2" stroke-linecap="round" stroke-linejoin="round"/>
<path d="M29.6049 22.7913C29.614 23.9628 29.389 25.1242 28.9429 26.2076C19.4397 28.513 9.59403 26.4663 8.02664 26.1087C7.60147 25.0547 7.38698 23.9277 7.39512 22.7913H7.47882C7.47882 22.7913 18.7397 25.5228 29.4603 22.8445L29.6049 22.7913Z" stroke="black" stroke-width="2" stroke-linecap="round" stroke-linejoin="round"/>
<path d="M28.943 26.2076C27.5811 29.4565 24.1115 31.7086 18.5267 31.7086C12.8887 31.7086 9.37347 29.4032 8.02673 26.1086C9.59412 26.4663 19.4397 28.513 28.943 26.2076Z" stroke="black" stroke-width="2" stroke-linecap="round" stroke-linejoin="round"/>
<path d="M13.9348 14.6957C13.9348 15.9563 12.9116 16.9783 11.6522 16.9783C10.3927 16.9783 9.36957 15.9562 9.36957 14.6957C9.36957 13.4363 10.3927 12.4131 11.6522 12.4131C12.9116 12.4131 13.9348 13.4363 13.9348 14.6957Z" fill="black"/>
<path d="M27.6305 14.6957C27.6305 15.9563 26.6073 16.9783 25.3479 16.9783C24.0884 16.9783 23.0652 15.9562 23.0652 14.6957C23.0652 13.4363 24.0884 12.4131 25.3479 12.4131C26.6073 12.4131 27.6305 13.4363 27.6305 14.6957Z" fill="black"/>
</svg>
