<svg width="90" height="87" viewBox="0 0 90 87" fill="none" xmlns="http://www.w3.org/2000/svg">
<path d="M6.004 31.34C6.052 30.884 6.34 30.512 6.868 30.224C7.396 29.936 7.984 29.792 8.632 29.792C9.28 29.792 9.904 29.948 10.504 30.26C11.128 30.548 11.548 31.052 11.764 31.772C13.804 29.996 15.664 29.312 17.344 29.72C17.92 29.84 18.412 30.176 18.82 30.728C20.044 29.552 21.4 28.784 22.888 28.424C24.76 28.352 26.104 28.784 26.92 29.72C27.04 29.84 27.16 29.972 27.28 30.116C27.616 30.476 27.808 30.716 27.856 30.836C28.288 31.508 28.408 33.056 28.216 35.48C27.952 38.624 27.352 41.78 26.416 44.948C25.912 46.556 25.456 47.384 25.048 47.432C24.808 47.48 24.58 47.48 24.364 47.432C24.172 47.384 23.992 47.348 23.824 47.324C23.68 47.324 23.596 47.468 23.572 47.756C23.092 48.38 22.36 48.692 21.376 48.692C20.416 48.692 19.6 48.392 18.928 47.792C18.184 47.168 17.92 46.436 18.136 45.596C18.376 44.732 18.64 43.856 18.928 42.968C19.216 42.056 19.528 41.12 19.864 40.16C20.44 38.48 21.076 36.728 21.772 34.904C21.268 35.48 20.584 36.572 19.72 38.18C18.856 39.764 18.316 40.712 18.1 41.024C17.692 41.84 17.356 42.488 17.092 42.968C16.828 43.424 16.468 43.796 16.012 44.084C15.58 44.348 15.172 44.516 14.788 44.588C14.428 44.66 14.08 44.672 13.744 44.624C12.952 44.504 12.388 44.168 12.052 43.616C11.98 43.424 11.908 43.232 11.836 43.04C11.764 42.848 11.704 42.584 11.656 42.248C11.584 41.504 11.68 40.292 11.944 38.612L11.872 38.72C12.16 38.432 12.256 38.36 12.16 38.504C11.2 39.872 10.624 40.748 10.432 41.132C10.24 41.516 10.036 41.948 9.82 42.428C9.604 42.884 9.352 43.424 9.064 44.048C8.776 44.648 8.548 45.188 8.38 45.668C8.212 46.148 8.008 46.616 7.768 47.072C6.688 48.944 4.792 49.7 2.08 49.34C1.504 49.268 1.012 49.124 0.604001 48.908C0.196001 48.716 0.0280013 48.416 0.100001 48.008C0.292001 47.048 0.736001 45.452 1.432 43.22C2.8 38.804 3.616 35.96 3.88 34.688C4.048 34.256 4.192 33.812 4.312 33.356C4.456 32.9 4.6 32.504 4.744 32.168C5.032 31.376 5.452 31.1 6.004 31.34ZM18.496 40.232V40.304C18.544 40.208 18.544 40.184 18.496 40.232Z" fill="#2C2A2A"/>
<path d="M33.6377 31.628C34.1417 31.268 34.7657 31.184 35.5097 31.376C35.6537 31.4 35.7977 31.412 35.9417 31.412C36.4697 30.332 37.3817 29.768 38.6777 29.72C39.0137 29.696 39.4817 29.636 40.0817 29.54C40.6817 29.444 41.4017 29.468 42.2417 29.612C43.1057 29.756 43.8617 30.008 44.5097 30.368C45.9257 31.136 46.7777 32.24 47.0657 33.68C47.6417 35.792 47.5577 38.096 46.8137 40.592C46.0217 43.352 44.6777 45.56 42.7817 47.216C41.9177 47.984 41.0057 48.464 40.0457 48.656C39.0857 48.872 38.2217 48.992 37.4537 49.016C36.6857 49.04 35.9777 49.04 35.3297 49.016C34.7057 49.016 34.0937 48.956 33.4937 48.836C32.1977 48.572 31.1297 47.96 30.2897 47C29.3057 45.92 28.8857 44.24 29.0297 41.96C29.1257 39.944 29.6297 37.916 30.5417 35.876C31.4777 33.812 32.5097 32.396 33.6377 31.628ZM39.9737 38.864C39.3737 39.056 38.8097 39.14 38.2817 39.116C38.0177 39.38 37.7777 39.668 37.5617 39.98C37.3697 40.268 37.1057 40.544 36.7697 40.808C36.4337 41.048 36.2657 41.144 36.2657 41.096C35.8577 41.672 35.5217 42.272 35.2577 42.896C34.9937 43.496 34.9937 44.108 35.2577 44.732C36.2177 44.828 36.9257 44.804 37.3817 44.66C37.8377 44.516 38.2577 44.24 38.6417 43.832C39.0497 43.424 39.3617 42.944 39.5777 42.392C40.0097 41.36 40.1417 40.184 39.9737 38.864Z" fill="#2C2A2A"/>
<path d="M52.5166 31.628C53.0206 31.268 53.6446 31.184 54.3886 31.376C54.5326 31.4 54.6766 31.412 54.8206 31.412C55.3486 30.332 56.2606 29.768 57.5566 29.72C57.8926 29.696 58.3606 29.636 58.9606 29.54C59.5606 29.444 60.2806 29.468 61.1206 29.612C61.9846 29.756 62.7406 30.008 63.3886 30.368C64.8046 31.136 65.6566 32.24 65.9446 33.68C66.5206 35.792 66.4366 38.096 65.6926 40.592C64.9006 43.352 63.5566 45.56 61.6606 47.216C60.7966 47.984 59.8846 48.464 58.9246 48.656C57.9646 48.872 57.1006 48.992 56.3326 49.016C55.5646 49.04 54.8566 49.04 54.2086 49.016C53.5846 49.016 52.9726 48.956 52.3726 48.836C51.0766 48.572 50.0086 47.96 49.1686 47C48.1846 45.92 47.7646 44.24 47.9086 41.96C48.0046 39.944 48.5086 37.916 49.4206 35.876C50.3566 33.812 51.3886 32.396 52.5166 31.628ZM58.8526 38.864C58.2526 39.056 57.6886 39.14 57.1606 39.116C56.8966 39.38 56.6566 39.668 56.4406 39.98C56.2486 40.268 55.9846 40.544 55.6486 40.808C55.3126 41.048 55.1446 41.144 55.1446 41.096C54.7366 41.672 54.4006 42.272 54.1366 42.896C53.8726 43.496 53.8726 44.108 54.1366 44.732C55.0966 44.828 55.8046 44.804 56.2606 44.66C56.7166 44.516 57.1366 44.24 57.5206 43.832C57.9286 43.424 58.2406 42.944 58.4566 42.392C58.8886 41.36 59.0206 40.184 58.8526 38.864Z" fill="#2C2A2A"/>
<path d="M73.6635 32.276C74.5515 31.676 75.5715 31.496 76.7235 31.736C77.8755 32 78.5235 32.504 78.6675 33.248C78.8595 32.792 79.0035 32.336 79.0995 31.88C80.1795 27.008 81.3675 23.288 82.6635 20.72C83.0715 19.928 83.4915 19.376 83.9235 19.064C85.0515 18.344 86.2395 18.248 87.4875 18.776C87.9915 18.992 88.3875 19.292 88.6755 19.676C88.9635 20.036 89.0715 20.372 88.9995 20.684C88.9515 20.996 88.9755 21.248 89.0715 21.44C89.1915 21.632 89.3235 21.824 89.4675 22.016C89.8515 22.472 90.0075 22.868 89.9355 23.204C89.4555 25.1 88.8075 27.068 87.9915 29.108C87.1995 31.124 86.3835 33.14 85.5435 35.156C84.7035 37.172 83.9355 39.164 83.2395 41.132C82.5675 43.076 82.1235 44.924 81.9075 46.676C81.9075 47.132 81.7155 47.54 81.3315 47.9C80.9475 48.284 80.4675 48.584 79.8915 48.8C78.5235 49.28 77.2515 49.184 76.0755 48.512V48.296C75.8355 48.224 75.6555 48.176 75.5355 48.152C75.4395 48.128 75.3675 48.08 75.3195 48.008C75.2475 47.888 75.1875 47.516 75.1395 46.892C74.6595 47.636 74.1915 48.092 73.7355 48.26C73.2795 48.428 72.8115 48.512 72.3315 48.512C70.0035 48.512 68.3475 48.092 67.3635 47.252C66.4995 46.532 66.0915 45.356 66.1395 43.724C66.1875 41.9 66.8595 39.86 68.1555 37.604C69.6435 35.036 71.4795 33.26 73.6635 32.276ZM73.6275 44.084C74.3955 44.348 74.9235 44.168 75.2115 43.544C75.3795 43.232 75.5355 42.824 75.6795 42.32C75.8475 41.816 76.0515 41.228 76.2915 40.556L76.4355 39.836C75.8595 39.5 75.3315 39.452 74.8515 39.692C74.3955 39.932 74.0235 40.304 73.7355 40.808C73.4475 41.312 73.2795 41.876 73.2315 42.5C73.1835 43.124 73.3155 43.652 73.6275 44.084Z" fill="#2C2A2A"/>
<path d="M8.308 60.276C9.196 59.676 10.216 59.496 11.368 59.736C12.52 60 13.168 60.504 13.312 61.248C13.504 60.792 13.648 60.336 13.744 59.88C14.824 55.008 16.012 51.288 17.308 48.72C17.716 47.928 18.136 47.376 18.568 47.064C19.696 46.344 20.884 46.248 22.132 46.776C22.636 46.992 23.032 47.292 23.32 47.676C23.608 48.036 23.716 48.372 23.644 48.684C23.596 48.996 23.62 49.248 23.716 49.44C23.836 49.632 23.968 49.824 24.112 50.016C24.496 50.472 24.652 50.868 24.58 51.204C24.1 53.1 23.452 55.068 22.636 57.108C21.844 59.124 21.028 61.14 20.188 63.156C19.348 65.172 18.58 67.164 17.884 69.132C17.212 71.076 16.768 72.924 16.552 74.676C16.552 75.132 16.36 75.54 15.976 75.9C15.592 76.284 15.112 76.584 14.536 76.8C13.168 77.28 11.896 77.184 10.72 76.512V76.296C10.48 76.224 10.3 76.176 10.18 76.152C10.084 76.128 10.012 76.08 9.964 76.008C9.892 75.888 9.832 75.516 9.784 74.892C9.304 75.636 8.836 76.092 8.38 76.26C7.924 76.428 7.456 76.512 6.976 76.512C4.648 76.512 2.992 76.092 2.008 75.252C1.144 74.532 0.736001 73.356 0.784001 71.724C0.832001 69.9 1.504 67.86 2.8 65.604C4.288 63.036 6.124 61.26 8.308 60.276ZM8.272 72.084C9.04 72.348 9.568 72.168 9.856 71.544C10.024 71.232 10.18 70.824 10.324 70.32C10.492 69.816 10.696 69.228 10.936 68.556L11.08 67.836C10.504 67.5 9.976 67.452 9.496 67.692C9.04 67.932 8.668 68.304 8.38 68.808C8.092 69.312 7.924 69.876 7.876 70.5C7.828 71.124 7.96 71.652 8.272 72.084Z" fill="#2C2A2A"/>
<path d="M25.2637 59.412C25.5757 58.62 26.3197 58.08 27.4957 57.792C28.5997 57.504 29.6317 57.54 30.5917 57.9C31.5757 58.284 32.0197 58.908 31.9237 59.772C31.6597 60.612 31.3237 61.644 30.9157 62.868C30.5317 64.068 30.1597 65.304 29.7997 66.576C28.8397 69.84 28.2877 72.144 28.1437 73.488C27.7837 75.648 27.1837 76.812 26.3437 76.98C26.1037 77.028 25.8757 77.064 25.6597 77.088C25.1317 77.112 24.7957 77.256 24.6517 77.52C24.5077 77.784 24.2677 77.976 23.9317 78.096C23.5957 78.24 23.2237 78.3 22.8157 78.276C22.4317 78.276 22.0357 78.18 21.6277 77.988C21.2197 77.82 20.8717 77.568 20.5837 77.232C19.9117 76.416 19.7797 75.324 20.1877 73.956C20.5717 71.34 21.5437 68.016 23.1037 63.984C23.8477 61.992 24.5677 60.468 25.2637 59.412ZM32.0677 54.012C30.8917 54.252 29.9317 54.18 29.1877 53.796C28.4677 53.412 28.0477 52.956 27.9277 52.428C27.8077 51.876 27.9757 51.312 28.4317 50.736C28.9597 50.016 29.7517 49.548 30.8077 49.332C31.2877 49.284 31.6357 49.26 31.8517 49.26C32.0677 49.26 32.3317 49.308 32.6437 49.404C33.4357 49.476 33.9517 49.824 34.1917 50.448C34.5277 50.976 34.5517 51.576 34.2637 52.248C33.9997 52.92 33.2677 53.508 32.0677 54.012Z" fill="#2C2A2A"/>
<path d="M48.5661 59.556L48.7101 59.592C48.7581 59.592 48.7821 59.604 48.7821 59.628C49.4061 59.388 49.9221 59.568 50.3301 60.168C50.5941 60.576 50.7981 61.2 50.9421 62.04C50.9901 63.192 50.8701 64.788 50.5821 66.828C50.0301 70.956 49.7301 73.416 49.6821 74.208C49.7301 75.048 49.2141 75.624 48.1341 75.936C47.1981 76.224 46.2621 76.212 45.3261 75.9C44.3421 75.564 43.9341 75.048 44.1021 74.352C43.9101 74.712 43.7181 74.964 43.5261 75.108C43.3341 75.276 42.9501 75.492 42.3741 75.756C41.8221 76.044 41.0301 76.272 39.9981 76.44C38.9661 76.632 37.9341 76.68 36.9021 76.584C35.8701 76.512 34.9221 76.26 34.0581 75.828C33.2181 75.42 32.6541 74.772 32.3661 73.884C31.8141 72.156 31.8861 69.96 32.5821 67.296C33.0621 65.544 33.9261 63.996 35.1741 62.652C36.6141 61.116 38.2461 59.844 40.0701 58.836C41.4381 58.092 42.7581 57.648 44.0301 57.504C44.4621 57.456 44.8341 57.468 45.1461 57.54C45.4821 57.612 45.8301 57.684 46.1901 57.756C46.5741 57.828 46.9341 57.936 47.2701 58.08C48.1341 58.44 48.5661 58.932 48.5661 59.556ZM41.9061 69.096C42.0741 68.76 42.2061 68.34 42.3021 67.836C42.4221 67.332 42.5781 66.78 42.7701 66.18C40.8261 66.972 39.3381 67.944 38.3061 69.096C37.1781 70.368 37.2501 71.244 38.5221 71.724C39.6261 72.012 40.4301 71.832 40.9341 71.184C41.1501 70.896 41.3421 70.536 41.5101 70.104C41.6781 69.672 41.8821 69.228 42.1221 68.772C42.0501 68.892 41.9781 69 41.9061 69.096Z" fill="#2C2A2A"/>
<path d="M55.1229 60.096C55.4589 59.232 55.9269 58.584 56.5269 58.152C57.1509 57.696 57.7389 57.42 58.2909 57.324C58.8669 57.204 59.3349 57.264 59.6949 57.504C60.0789 57.744 60.2109 58.116 60.0909 58.62C60.5469 58.164 61.2069 57.744 62.0709 57.36C62.9349 56.976 63.6189 56.712 64.1229 56.568C64.6269 56.424 65.0589 56.352 65.4189 56.352C66.2109 56.4 66.4389 56.832 66.1029 57.648C66.5109 57.72 66.8109 57.984 67.0029 58.44C67.1949 58.896 67.2189 59.4 67.0749 59.952C66.9309 60.504 66.6069 61.044 66.1029 61.572C65.5989 62.1 64.9149 62.46 64.0509 62.652C63.2109 62.844 62.5029 63.288 61.9269 63.984C61.3749 64.656 60.8829 65.496 60.4509 66.504C59.7309 68.208 59.0829 70.62 58.5069 73.74C58.3149 74.868 57.5349 75.816 56.1669 76.584C54.8709 77.328 53.6829 77.544 52.6029 77.232C51.3789 76.896 50.8389 75.996 50.9829 74.532C51.0309 73.5 51.3429 72.132 51.9189 70.428C52.4949 68.7 52.9389 67.404 53.2509 66.54C53.5629 65.652 53.7789 64.98 53.8989 64.524L55.1229 60.096Z" fill="#2C2A2A"/>
<path d="M66.9835 63.984C67.0075 63 66.9355 62.196 66.7675 61.572C66.5995 60.948 66.5995 60.432 66.7675 60.024C66.9595 59.592 67.2475 59.292 67.6315 59.124C68.0395 58.956 68.5075 58.908 69.0355 58.98C69.5875 59.028 70.1275 59.184 70.6555 59.448C71.9275 60.024 72.8155 60.84 73.3195 61.896C73.4395 62.424 73.3915 63.084 73.1755 63.876C72.9835 64.644 72.7555 65.448 72.4915 66.288C72.2275 67.104 71.9755 67.908 71.7355 68.7C71.4955 69.468 71.3995 70.116 71.4475 70.644C72.0715 70.26 72.6115 69.684 73.0675 68.916C73.5475 68.148 73.9795 67.332 74.3635 66.468C74.7715 65.58 75.1435 64.704 75.4795 63.84C75.8395 62.976 76.1755 62.292 76.4875 61.788C76.8235 61.284 77.0875 60.888 77.2795 60.6C77.4715 60.288 77.6635 60.012 77.8555 59.772C78.1675 59.364 78.5755 58.968 79.0795 58.584C79.2235 58.464 79.6555 58.488 80.3755 58.656C81.1195 58.8 81.6595 58.908 81.9955 58.98C82.3555 59.028 82.5955 59.004 82.7155 58.908L83.2195 58.548C83.8915 58.212 84.6835 58.224 85.5955 58.584C86.4835 58.968 86.9515 59.556 86.9995 60.348C86.9755 60.372 86.9635 60.42 86.9635 60.492L87.0715 60.528L86.8195 60.744C86.6515 61.056 86.5195 61.272 86.4235 61.392C86.3515 61.488 86.1835 61.644 85.9195 61.86C84.2875 63.612 82.4155 66.864 80.3035 71.616C79.7755 72.792 79.2955 73.848 78.8635 74.784C79.5115 75.192 80.0035 75.72 80.3395 76.368C80.6755 77.016 80.6755 77.724 80.3395 78.492C78.3475 80.076 77.2315 81.564 76.9915 82.956C76.8715 83.82 76.7155 84.432 76.5235 84.792C76.3555 85.152 76.0795 85.5 75.6955 85.836C74.3995 86.796 72.8755 86.556 71.1235 85.116C69.8755 83.868 69.8155 82.308 70.9435 80.436C71.2315 79.932 71.5075 79.404 71.7715 78.852C72.1555 78.036 72.7675 76.824 73.6075 75.216C71.5435 76.416 69.6475 76.392 67.9195 75.144C66.6955 74.208 66.2635 72.084 66.6235 68.772C66.8635 66.564 66.9835 64.968 66.9835 63.984Z" fill="#2C2A2A"/>
<path d="M24.587 3.64498C24.631 3.22698 24.895 2.88598 25.379 2.62198C25.863 2.35798 26.402 2.22598 26.996 2.22598C27.59 2.22598 28.162 2.36898 28.712 2.65498C29.284 2.91898 29.669 3.38098 29.867 4.04098C31.737 2.41298 33.442 1.78598 34.982 2.15998C35.51 2.26998 35.961 2.57798 36.335 3.08398C37.457 2.00598 38.7 1.30198 40.064 0.971976C41.78 0.905976 43.012 1.30198 43.76 2.15998C43.87 2.26998 43.98 2.39098 44.09 2.52298C44.398 2.85298 44.574 3.07298 44.618 3.18298C45.014 3.79898 45.124 5.21798 44.948 7.43998C44.706 10.322 44.156 13.215 43.298 16.119C42.836 17.593 42.418 18.352 42.044 18.396C41.824 18.44 41.615 18.44 41.417 18.396C41.241 18.352 41.076 18.319 40.922 18.297C40.79 18.297 40.713 18.429 40.691 18.693C40.251 19.265 39.58 19.551 38.678 19.551C37.798 19.551 37.05 19.276 36.434 18.726C35.752 18.154 35.51 17.483 35.708 16.713C35.928 15.921 36.17 15.118 36.434 14.304C36.698 13.468 36.984 12.61 37.292 11.73C37.82 10.19 38.403 8.58398 39.041 6.91198C38.579 7.43998 37.952 8.44098 37.16 9.91498C36.368 11.367 35.873 12.236 35.675 12.522C35.301 13.27 34.993 13.864 34.751 14.304C34.509 14.722 34.179 15.063 33.761 15.327C33.365 15.569 32.991 15.723 32.639 15.789C32.309 15.855 31.99 15.866 31.682 15.822C30.956 15.712 30.439 15.404 30.131 14.898C30.065 14.722 29.999 14.546 29.933 14.37C29.867 14.194 29.812 13.952 29.768 13.644C29.702 12.962 29.79 11.851 30.032 10.311L29.966 10.41C30.23 10.146 30.318 10.08 30.23 10.212C29.35 11.466 28.822 12.269 28.646 12.621C28.47 12.973 28.283 13.369 28.085 13.809C27.887 14.227 27.656 14.722 27.392 15.294C27.128 15.844 26.919 16.339 26.765 16.779C26.611 17.219 26.424 17.648 26.204 18.066C25.214 19.782 23.476 20.475 20.99 20.145C20.462 20.079 20.011 19.947 19.637 19.749C19.263 19.573 19.109 19.298 19.175 18.924C19.351 18.044 19.758 16.581 20.396 14.535C21.65 10.487 22.398 7.87998 22.64 6.71398C22.794 6.31798 22.926 5.91098 23.036 5.49298C23.168 5.07498 23.3 4.71198 23.432 4.40398C23.696 3.67798 24.081 3.42498 24.587 3.64498ZM36.038 11.796V11.862C36.082 11.774 36.082 11.752 36.038 11.796Z" fill="#2C2A2A"/>
<path d="M46.4859 7.90198C46.5079 6.99998 46.4419 6.26298 46.2879 5.69098C46.1339 5.11898 46.1339 4.64598 46.2879 4.27198C46.4639 3.87598 46.7279 3.60098 47.0799 3.44698C47.4539 3.29298 47.8829 3.24898 48.3669 3.31498C48.8729 3.35898 49.3679 3.50198 49.8519 3.74398C51.0179 4.27198 51.8319 5.01998 52.2939 5.98798C52.4039 6.47198 52.3599 7.07698 52.1619 7.80298C51.9859 8.50698 51.7769 9.24398 51.5349 10.014C51.2929 10.762 51.0619 11.499 50.8419 12.225C50.6219 12.929 50.5339 13.523 50.5779 14.007C51.1499 13.655 51.6449 13.127 52.0629 12.423C52.5029 11.719 52.8989 10.971 53.2509 10.179C53.6249 9.36498 53.9659 8.56198 54.2739 7.76998C54.6039 6.97798 54.9119 6.35098 55.1979 5.88898C55.5059 5.42698 55.7479 5.06398 55.9239 4.79998C56.0999 4.51398 56.2759 4.26098 56.4519 4.04098C56.7379 3.66698 57.1119 3.30398 57.5739 2.95198C57.7059 2.84198 58.1019 2.86398 58.7619 3.01798C59.4439 3.14998 59.9389 3.24898 60.2469 3.31498C60.5769 3.35898 60.7969 3.33698 60.9069 3.24898L61.3689 2.91898C61.9849 2.61098 62.7109 2.62198 63.5469 2.95198C64.3609 3.30398 64.7899 3.84298 64.8339 4.56898C64.8119 4.59098 64.8009 4.63498 64.8009 4.70098L64.8999 4.73398L64.6689 4.93198C64.5149 5.21798 64.3939 5.41598 64.3059 5.52598C64.2399 5.61398 64.0859 5.75698 63.8439 5.95498C62.3479 7.56098 60.6319 10.542 58.6959 14.898C58.2119 15.976 57.7719 16.944 57.3759 17.802C57.9699 18.176 58.4209 18.66 58.7289 19.254C59.0369 19.848 59.0369 20.497 58.7289 21.201C56.9029 22.653 55.8799 24.017 55.6599 25.293C55.5499 26.085 55.4069 26.646 55.2309 26.976C55.0769 27.306 54.8239 27.625 54.4719 27.933C53.2839 28.813 51.8869 28.593 50.2809 27.273C49.1369 26.129 49.0819 24.699 50.1159 22.983C50.3799 22.521 50.6329 22.037 50.8749 21.531C51.2269 20.783 51.7879 19.672 52.5579 18.198C50.6659 19.298 48.9279 19.276 47.3439 18.132C46.2219 17.274 45.8259 15.327 46.1559 12.291C46.3759 10.267 46.4859 8.80398 46.4859 7.90198Z" fill="#2C2A2A"/>
</svg>
