<svg width="80" height="55" viewBox="0 0 80 55" fill="none" xmlns="http://www.w3.org/2000/svg">
<path d="M17.561 19.9805C27.2165 19.9805 35.0439 27.808 35.0439 37.4634C35.0439 47.1188 27.2165 54.9463 17.561 54.9463C7.90541 54.9463 0.0780488 47.1188 0.0780488 37.4634L0 34.9659C0 15.6547 15.6547 0 34.9659 0V9.99024C28.2947 9.99024 22.0227 12.5882 17.3054 17.3054C16.3974 18.2136 15.5687 19.1799 14.8212 20.1948C15.7139 20.0543 16.6288 19.9805 17.561 19.9805ZM62.5171 19.9805C72.1725 19.9805 80 27.808 80 37.4634C80 47.1188 72.1725 54.9463 62.5171 54.9463C52.8617 54.9463 45.0341 47.1188 45.0341 37.4634L44.9561 34.9659C44.9561 15.6547 60.6107 0 79.922 0V9.99024C73.251 9.99024 66.9787 12.5882 62.2615 17.3054C61.3534 18.2136 60.5246 19.1799 59.7771 20.1948C60.6698 20.0543 61.5847 19.9805 62.5171 19.9805Z" fill="black"/>
</svg>
