<svg width="42" height="42" viewBox="0 0 42 42" fill="none" xmlns="http://www.w3.org/2000/svg">
<path d="M21 1C9.97191 1 1 9.97191 1 21C1 32.028 9.97191 41 21 41C32.028 41 41 32.028 41 21C41 9.97191 32.028 1 21 1Z" fill="#FFFCE3"/>
<path d="M21 41C32.0457 41 41 32.0457 41 21C41 9.9543 32.0457 1 21 1C9.9543 1 1 9.9543 1 21C1 32.0457 9.9543 41 21 41Z" stroke="black" stroke-width="2" stroke-miterlimit="10"/>
<path d="M13.1739 29.6957H28.8261" stroke="black" stroke-width="2" stroke-miterlimit="10" stroke-linecap="round" stroke-linejoin="round"/>
<path d="M9.69568 18.4586C10.055 18.7577 11.6484 20.0164 13.9645 19.8816C15.8434 19.7721 17.1036 18.8091 17.5218 18.4586" stroke="black" stroke-width="2" stroke-miterlimit="10" stroke-linecap="round" stroke-linejoin="round"/>
<path d="M25.3478 18.4586C25.7071 18.7577 27.3005 20.0164 29.6166 19.8816C31.4956 19.7721 32.7558 18.8091 33.1739 18.4586" stroke="black" stroke-width="2" stroke-miterlimit="10" stroke-linecap="round" stroke-linejoin="round"/>
<path d="M7.03345 13.3914C7.4571 13.5892 9.3184 14.4008 11.5238 13.6807C13.313 13.0965 14.2865 11.8444 14.6017 11.399" stroke="black" stroke-width="2" stroke-miterlimit="10" stroke-linecap="round" stroke-linejoin="round"/>
<path d="M35.4713 13.3914C35.0476 13.5892 33.1863 14.4008 30.9809 13.6807C29.1917 13.0965 28.2182 11.8444 27.903 11.399" stroke="black" stroke-width="2" stroke-miterlimit="10" stroke-linecap="round" stroke-linejoin="round"/>
</svg>
