<svg width="37" height="37" viewBox="0 0 37 37" fill="none" xmlns="http://www.w3.org/2000/svg">
<path d="M18.5 36C28.165 36 36 28.165 36 18.5C36 8.83502 28.165 1 18.5 1C8.83502 1 1 8.83502 1 18.5C1 28.165 8.83502 36 18.5 36Z" stroke="black" stroke-width="2" stroke-miterlimit="10"/>
<path d="M11.6522 26.1086H25.3478" stroke="black" stroke-width="2" stroke-miterlimit="10" stroke-linecap="round" stroke-linejoin="round"/>
<path d="M8.6087 16.2762C8.92309 16.538 10.3173 17.6393 12.3439 17.5213C13.988 17.4255 15.0906 16.583 15.4565 16.2762" stroke="black" stroke-width="2" stroke-miterlimit="10" stroke-linecap="round" stroke-linejoin="round"/>
<path d="M22.3043 16.2762C22.6187 16.538 24.0129 17.6393 26.0395 17.5213C27.6836 17.4255 28.7862 16.583 29.1521 16.2762" stroke="black" stroke-width="2" stroke-miterlimit="10" stroke-linecap="round" stroke-linejoin="round"/>
<path d="M6.2793 11.8424C6.64999 12.0155 8.27863 12.7256 10.2084 12.0956C11.7739 11.5844 12.6257 10.4888 12.9015 10.0991" stroke="black" stroke-width="2" stroke-miterlimit="10" stroke-linecap="round" stroke-linejoin="round"/>
<path d="M31.1624 11.8424C30.7917 12.0155 29.1631 12.7256 27.2333 12.0956C25.6678 11.5844 24.816 10.4888 24.5402 10.0991" stroke="black" stroke-width="2" stroke-miterlimit="10" stroke-linecap="round" stroke-linejoin="round"/>
</svg>
