<svg width="37" height="37" viewBox="0 0 37 37" fill="none" xmlns="http://www.w3.org/2000/svg">
<path d="M18.5 36C28.165 36 36 28.165 36 18.5C36 8.83502 28.165 1 18.5 1C8.83502 1 1 8.83502 1 18.5C1 28.165 8.83502 36 18.5 36Z" stroke="black" stroke-width="2" stroke-miterlimit="10"/>
<path d="M14.0033 23.8946C16.3818 23.2943 17.6669 22.9595 20.3429 23.0592C22.7997 23.1508 25.0154 23.5123 26.1095 25.2931" stroke="black" stroke-width="2" stroke-miterlimit="10" stroke-linecap="round" stroke-linejoin="round"/>
<path d="M8.82935 11.4239C9.07785 11.0989 10.1928 9.71573 12.1954 9.38095C13.8199 9.10962 15.0822 9.68659 15.5067 9.90443" stroke="black" stroke-width="2" stroke-miterlimit="10" stroke-linecap="round" stroke-linejoin="round"/>
<path d="M23.7728 10.1304C24.1279 9.94023 25.6902 9.29349 27.6091 9.69348C29.2207 9.99182 29.4512 10.3237 30.4472 11.006" stroke="black" stroke-width="2" stroke-miterlimit="10" stroke-linecap="round" stroke-linejoin="round"/>
<path d="M15.4565 14.6957C15.4565 15.9563 14.4333 16.9783 13.1739 16.9783C11.9144 16.9783 10.8913 15.9562 10.8913 14.6957C10.8913 13.4363 11.9144 12.4131 13.1739 12.4131C14.4333 12.4131 15.4565 13.4363 15.4565 14.6957Z" fill="black"/>
<path d="M29.1522 14.6957C29.1522 15.9563 28.129 16.9783 26.8696 16.9783C25.6101 16.9783 24.5869 15.9562 24.5869 14.6957C24.5869 13.4363 25.6101 12.4131 26.8696 12.4131C28.129 12.4131 29.1522 13.4363 29.1522 14.6957Z" fill="black"/>
</svg>
