<svg width="42" height="42" viewBox="0 0 42 42" fill="none" xmlns="http://www.w3.org/2000/svg">
<path d="M21 1C9.97191 1 1 9.97191 1 21C1 32.028 9.97191 41 21 41C32.028 41 41 32.028 41 21C41 9.97191 32.028 1 21 1Z" fill="#FA8072"/>
<path d="M21 41C32.0457 41 41 32.0457 41 21C41 9.9543 32.0457 1 21 1C9.9543 1 1 9.9543 1 21C1 32.0457 9.9543 41 21 41Z" stroke="black" stroke-width="2" stroke-miterlimit="10"/>
<path d="M15.8609 27.1652C18.5792 26.4792 20.0479 26.0965 23.1061 26.2105C25.9139 26.3151 28.4461 26.7283 29.6966 28.7635" stroke="black" stroke-width="2" stroke-miterlimit="10" stroke-linecap="round" stroke-linejoin="round"/>
<path d="M9.94781 12.913C10.2318 12.5416 11.5061 10.9609 13.7948 10.5782C15.6513 10.2682 17.0939 10.9275 17.5791 11.1765" stroke="black" stroke-width="2" stroke-miterlimit="10" stroke-linecap="round" stroke-linejoin="round"/>
<path d="M27.0261 11.4347C27.4319 11.2173 29.2174 10.4782 31.4104 10.9353C33.2521 11.2763 33.5156 11.6556 34.6539 12.4353" stroke="black" stroke-width="2" stroke-miterlimit="10" stroke-linecap="round" stroke-linejoin="round"/>
<path d="M17.5217 16.6522C17.5217 18.0928 16.3523 19.2608 14.913 19.2608C13.4736 19.2608 12.3043 18.0928 12.3043 16.6522C12.3043 15.2128 13.4736 14.0435 14.913 14.0435C16.3523 14.0435 17.5217 15.2128 17.5217 16.6522Z" fill="black"/>
<path d="M33.1739 16.6522C33.1739 18.0928 32.0046 19.2608 30.5652 19.2608C29.1258 19.2608 27.9565 18.0928 27.9565 16.6522C27.9565 15.2128 29.1258 14.0435 30.5652 14.0435C32.0046 14.0435 33.1739 15.2128 33.1739 16.6522Z" fill="black"/>
</svg>
