<svg width="40" height="40" viewBox="0 0 40 40" fill="none" xmlns="http://www.w3.org/2000/svg">
<path d="M20.0952 35.0476C28.511 35.0476 35.3333 28.2253 35.3333 19.8095C35.3333 11.3937 28.511 4.57141 20.0952 4.57141C11.6795 4.57141 4.85712 11.3937 4.85712 19.8095C4.85712 28.2253 11.6795 35.0476 20.0952 35.0476Z" fill="url(#paint0_radial_17_272)"/>
<path opacity="0.5" d="M20.0952 35.0476C28.511 35.0476 35.3333 28.2253 35.3333 19.8095C35.3333 11.3937 28.511 4.57141 20.0952 4.57141C11.6795 4.57141 4.85712 11.3937 4.85712 19.8095C4.85712 28.2253 11.6795 35.0476 20.0952 35.0476Z" fill="url(#paint1_radial_17_272)"/>
<path d="M20.0952 35.0476C28.511 35.0476 35.3333 28.2253 35.3333 19.8095C35.3333 11.3937 28.511 4.57141 20.0952 4.57141C11.6795 4.57141 4.85712 11.3937 4.85712 19.8095C4.85712 28.2253 11.6795 35.0476 20.0952 35.0476Z" fill="url(#paint2_radial_17_272)"/>
<path d="M20.0952 25.4476C24.5619 25.4476 26 29.8666 24.6286 29.1714C22.8 28.2476 21.6476 28.1523 20.0952 28.1523C18.5428 28.1523 17.3809 28.238 15.5619 29.1714C14.1905 29.8666 15.6286 25.4476 20.0952 25.4476Z" fill="#643800"/>
<path d="M26.1047 20.6856C26.1047 20.6856 23.3523 20.8285 22.2666 19.0475C22.1999 18.9333 22.1523 18.8094 22.1333 18.6856C22.0952 18.4285 22.2952 18.1333 22.819 18.3047C26.0571 19.3809 27.7142 18.5904 28.9714 18.019C29.4571 17.7999 29.9999 18.2666 29.819 18.6666C28.9238 20.6856 26.1047 20.6856 26.1047 20.6856Z" fill="url(#paint3_radial_17_272)"/>
<path d="M29.5142 14.1427C29.5618 14.7523 28.9237 15.1808 27.7904 15.257C26.8284 15.3237 24.676 14.9427 23.0856 13.1713C22.7903 12.8475 23.1903 12.6285 23.476 12.8285C24.4284 13.5237 26.8951 14.3332 28.7523 13.9999C29.4951 13.8665 29.5142 14.1427 29.5142 14.1427Z" fill="url(#paint4_linear_17_272)"/>
<path d="M14.0857 20.6856C14.0857 20.6856 16.8381 20.8285 17.9238 19.0475C17.9905 18.9333 18.0381 18.8094 18.0571 18.6856C18.0952 18.4285 17.8952 18.1333 17.3714 18.3047C14.1333 19.3809 12.4762 18.5904 11.219 18.019C10.7333 17.7999 10.1905 18.2666 10.3714 18.6666C11.2667 20.6856 14.0857 20.6856 14.0857 20.6856Z" fill="url(#paint5_radial_17_272)"/>
<path d="M10.6762 14.1427C10.6285 14.7523 11.2666 15.1808 12.4 15.257C13.3619 15.3237 15.5143 14.9427 17.1047 13.1713C17.3999 12.8475 17 12.6285 16.7143 12.8285C15.7619 13.5237 13.2952 14.3332 11.4381 13.9999C10.6952 13.8665 10.6762 14.1427 10.6762 14.1427Z" fill="url(#paint6_linear_17_272)"/>
<path d="M18.0095 18.4188C17.9143 18.276 17.7143 18.1903 17.3714 18.3046C14.1334 19.3808 12.4762 18.5903 11.2191 18.0188C10.9619 17.9046 10.6857 17.9808 10.5143 18.1427C12.4095 19.8569 16.4476 19.8855 18.0095 18.4188Z" fill="url(#paint7_linear_17_272)"/>
<path d="M5.3619 14.1904C5.3619 16.219 6.99995 17.8571 9.02855 17.8571C11.0571 17.8571 12.6952 16.219 12.6952 14.1904C12.6952 10.2666 9.02855 6.35236 9.02855 6.35236C9.02855 6.35236 5.3619 10.2571 5.3619 14.1904Z" fill="url(#paint8_linear_17_272)"/>
<path opacity="0.5" d="M8.99045 6.39996C8.66665 8.40946 6.62855 10.2952 7.07615 14.1238C7.4095 16.9523 11.6476 17.1238 12.6857 14.419C12.5714 16.3333 10.9809 17.8571 9.02855 17.8571C6.99995 17.8571 5.3619 16.219 5.3619 14.1904C5.3619 10.5142 8.5714 6.85711 8.99045 6.39996Z" fill="url(#paint9_radial_17_272)"/>
<path d="M9.02855 17.857C6.99995 17.857 5.3619 16.2189 5.3619 14.1903C5.3619 10.657 8.3333 7.13319 8.9238 6.46649C8.2857 8.46649 6.22855 11.2665 6.22855 13.9903C6.22855 16.1427 9.39995 18.7617 12.4857 15.4189C11.9809 16.8379 10.6286 17.857 9.02855 17.857Z" fill="url(#paint10_radial_17_272)"/>
<path d="M5.3619 14.1904C5.3619 16.219 6.99995 17.8571 9.02855 17.8571C11.0571 17.8571 12.6952 16.219 12.6952 14.1904C12.6952 10.2666 9.02855 6.35236 9.02855 6.35236C9.02855 6.35236 5.3619 10.2571 5.3619 14.1904Z" fill="url(#paint11_radial_17_272)"/>
<path d="M5.3619 14.1904C5.3619 16.219 6.99995 17.8571 9.02855 17.8571C11.0571 17.8571 12.6952 16.219 12.6952 14.1904C12.6952 10.2666 9.02855 6.35236 9.02855 6.35236C9.02855 6.35236 5.3619 10.2571 5.3619 14.1904Z" fill="url(#paint12_radial_17_272)"/>
<path d="M5.3619 14.1904C5.3619 16.219 6.99995 17.8571 9.02855 17.8571C11.0571 17.8571 12.6952 16.219 12.6952 14.1904C12.6952 10.2666 9.02855 6.35236 9.02855 6.35236C9.02855 6.35236 5.3619 10.2571 5.3619 14.1904Z" fill="url(#paint13_radial_17_272)"/>
<path d="M22.181 18.419C22.2762 18.2761 22.4762 18.1904 22.8191 18.3047C26.0572 19.3809 27.7143 18.5904 28.9715 18.019C29.2286 17.9047 29.5048 17.9809 29.6762 18.1428C27.781 19.8571 23.7429 19.8856 22.181 18.419Z" fill="url(#paint14_linear_17_272)"/>
<path d="M20.0952 26.2285C22.7333 26.2285 24.4 27.7142 25.1238 28.9523C25.1619 28.0571 23.5237 25.4476 20.0952 25.4476C16.6571 25.4476 15.019 28.0571 15.0666 28.9523C15.7904 27.7238 17.4571 26.2285 20.0952 26.2285Z" fill="url(#paint15_linear_17_272)"/>
<defs>
<radialGradient id="paint0_radial_17_272" cx="0" cy="0" r="1" gradientUnits="userSpaceOnUse" gradientTransform="translate(17.0971 13.634) scale(18.3828)">
<stop stop-color="#FFE030"/>
<stop offset="1" stop-color="#FFB92E"/>
</radialGradient>
<radialGradient id="paint1_radial_17_272" cx="0" cy="0" r="1" gradientUnits="userSpaceOnUse" gradientTransform="translate(17.0971 13.634) scale(14.4626)">
<stop stop-color="#FFEA5F"/>
<stop offset="1" stop-color="#FFBC47" stop-opacity="0"/>
</radialGradient>
<radialGradient id="paint2_radial_17_272" cx="0" cy="0" r="1" gradientUnits="userSpaceOnUse" gradientTransform="translate(8.64655 12.7612) rotate(72.6921) scale(13.7658 7.4041)">
<stop stop-color="#EB672A" stop-opacity="0.5"/>
<stop offset="0.3462" stop-color="#DC641B" stop-opacity="0.2846"/>
<stop offset="0.8036" stop-color="#C25E00" stop-opacity="0"/>
</radialGradient>
<radialGradient id="paint3_radial_17_272" cx="0" cy="0" r="1" gradientUnits="userSpaceOnUse" gradientTransform="translate(26.0534 19.3865) rotate(177.118) scale(2.94564 1.30891)">
<stop offset="0.00132565" stop-color="#7A4400"/>
<stop offset="1" stop-color="#643800"/>
</radialGradient>
<linearGradient id="paint4_linear_17_272" x1="26.5221" y1="16.1892" x2="26.3077" y2="14.1203" gradientUnits="userSpaceOnUse">
<stop offset="0.00132565" stop-color="#3C2200"/>
<stop offset="1" stop-color="#7A4400"/>
</linearGradient>
<radialGradient id="paint5_radial_17_272" cx="0" cy="0" r="1" gradientUnits="userSpaceOnUse" gradientTransform="translate(14.1363 19.3866) rotate(2.88189) scale(2.94564 1.30891)">
<stop offset="0.00132565" stop-color="#7A4400"/>
<stop offset="1" stop-color="#643800"/>
</radialGradient>
<linearGradient id="paint6_linear_17_272" x1="13.6682" y1="16.1895" x2="13.8826" y2="14.1205" gradientUnits="userSpaceOnUse">
<stop offset="0.00132565" stop-color="#3C2200"/>
<stop offset="1" stop-color="#7A4400"/>
</linearGradient>
<linearGradient id="paint7_linear_17_272" x1="14.3302" y1="17.4774" x2="14.104" y2="19.9893" gradientUnits="userSpaceOnUse">
<stop offset="0.00132565" stop-color="#3C2200"/>
<stop offset="1" stop-color="#512D00"/>
</linearGradient>
<linearGradient id="paint8_linear_17_272" x1="19.4956" y1="15.2031" x2="-1.19048" y2="9.22445" gradientUnits="userSpaceOnUse">
<stop stop-color="#D1F2FF"/>
<stop offset="0.668" stop-color="#80DAFE"/>
<stop offset="1" stop-color="#0099D6"/>
</linearGradient>
<radialGradient id="paint9_radial_17_272" cx="0" cy="0" r="1" gradientUnits="userSpaceOnUse" gradientTransform="translate(9.46355 11.57) rotate(169.572) scale(5.8728 9.04355)">
<stop offset="0.0599486" stop-color="#80DAFE"/>
<stop offset="0.566" stop-color="#80DAFE"/>
<stop offset="1" stop-color="#0099D6"/>
</radialGradient>
<radialGradient id="paint10_radial_17_272" cx="0" cy="0" r="1" gradientUnits="userSpaceOnUse" gradientTransform="translate(8.29 12.2231) rotate(180) scale(4.74778 8.19135)">
<stop offset="0.3432" stop-color="#80DAFE"/>
<stop offset="1" stop-color="#0099D6"/>
</radialGradient>
<radialGradient id="paint11_radial_17_272" cx="0" cy="0" r="1" gradientUnits="userSpaceOnUse" gradientTransform="translate(10.4808 11.0572) rotate(-103.604) scale(5.32855 2.3477)">
<stop stop-color="white" stop-opacity="0.25"/>
<stop offset="1" stop-color="white" stop-opacity="0"/>
</radialGradient>
<radialGradient id="paint12_radial_17_272" cx="0" cy="0" r="1" gradientUnits="userSpaceOnUse" gradientTransform="translate(9.46035 11.2197) rotate(108.995) scale(8.33145 6.33165)">
<stop offset="0.5858" stop-color="#0099D6" stop-opacity="0"/>
<stop offset="0.7213" stop-color="#1477E5" stop-opacity="0.1635"/>
<stop offset="0.9048" stop-color="#2D4FF8" stop-opacity="0.385"/>
<stop offset="1" stop-color="#3640FF" stop-opacity="0.5"/>
</radialGradient>
<radialGradient id="paint13_radial_17_272" cx="0" cy="0" r="1" gradientUnits="userSpaceOnUse" gradientTransform="translate(10.4808 11.0572) rotate(-103.604) scale(6.6987 2.95137)">
<stop stop-color="white" stop-opacity="0.45"/>
<stop offset="1" stop-color="white" stop-opacity="0"/>
</radialGradient>
<linearGradient id="paint14_linear_17_272" x1="25.8599" y1="17.4776" x2="26.0861" y2="19.9895" gradientUnits="userSpaceOnUse">
<stop offset="0.00132565" stop-color="#3C2200"/>
<stop offset="1" stop-color="#512D00"/>
</linearGradient>
<linearGradient id="paint15_linear_17_272" x1="20.095" y1="24.295" x2="20.095" y2="27.8211" gradientUnits="userSpaceOnUse">
<stop offset="0.00132565" stop-color="#3C2200"/>
<stop offset="1" stop-color="#512D00"/>
</linearGradient>
</defs>
</svg>
