<svg width="40" height="40" viewBox="0 0 40 40" fill="none" xmlns="http://www.w3.org/2000/svg">
<path d="M20 35.2381C28.4158 35.2381 35.2381 28.4158 35.2381 20C35.2381 11.5843 28.4158 4.7619 20 4.7619C11.5843 4.7619 4.7619 11.5843 4.7619 20C4.7619 28.4158 11.5843 35.2381 20 35.2381Z" fill="url(#paint0_radial_17_261)"/>
<path opacity="0.5" d="M20 35.2381C28.4158 35.2381 35.2381 28.4158 35.2381 20C35.2381 11.5843 28.4158 4.7619 20 4.7619C11.5843 4.7619 4.7619 11.5843 4.7619 20C4.7619 28.4158 11.5843 35.2381 20 35.2381Z" fill="url(#paint1_radial_17_261)"/>
<path d="M16.7047 12.7523C16.6666 12.019 15.9809 11.5999 14.8475 11.6571C13.8856 11.7142 11.7999 12.4666 10.4666 14.7904C10.219 15.219 10.6475 15.4285 10.8952 15.1428C11.7428 14.1809 14.0761 12.8761 15.9618 13.019C16.7237 13.0761 16.7047 12.7523 16.7047 12.7523Z" fill="url(#paint2_linear_17_261)"/>
<path d="M15.0286 20.6572C15.8387 20.6572 16.4953 19.6637 16.4953 18.4382C16.4953 17.2126 15.8387 16.2191 15.0286 16.2191C14.2186 16.2191 13.562 17.2126 13.562 18.4382C13.562 19.6637 14.2186 20.6572 15.0286 20.6572Z" fill="url(#paint3_radial_17_261)"/>
<path d="M15.0286 16.9715C15.6572 16.9715 16.2096 17.5239 16.4953 18.3334C16.4763 17.1334 15.8286 16.1715 15.0286 16.1715C14.2286 16.1715 13.581 17.1334 13.562 18.3334C13.8477 17.5144 14.3905 16.9715 15.0286 16.9715Z" fill="url(#paint4_linear_17_261)"/>
<path d="M24.9715 20.6572C25.7815 20.6572 26.4382 19.6637 26.4382 18.4382C26.4382 17.2126 25.7815 16.2191 24.9715 16.2191C24.1615 16.2191 23.5049 17.2126 23.5049 18.4382C23.5049 19.6637 24.1615 20.6572 24.9715 20.6572Z" fill="url(#paint5_radial_17_261)"/>
<path d="M23.2952 12.8C23.3333 12.0666 24.019 11.6476 25.1524 11.7047C26.1143 11.7619 28.2 12.5143 29.5333 14.8381C29.7809 15.2666 29.3524 15.4762 29.1048 15.1905C28.2571 14.2286 25.9238 12.9238 24.0381 13.0666C23.2762 13.1333 23.2952 12.8 23.2952 12.8Z" fill="url(#paint6_linear_17_261)"/>
<path d="M24.9715 17.0191C24.3429 17.0191 23.7906 17.5715 23.5049 18.381C23.5239 17.181 24.1715 16.2191 24.9715 16.2191C25.7715 16.2191 26.4191 17.181 26.4382 18.381C26.1525 17.5715 25.6096 17.0191 24.9715 17.0191Z" fill="url(#paint7_linear_17_261)"/>
<path d="M26.7237 28.7618C27.019 28.5237 27.0761 28.0856 26.8475 27.7809C25.5047 25.9714 23.3618 24.3428 19.9999 24.3428C16.638 24.3428 14.4951 25.9714 13.1523 27.7809C12.9237 28.0856 12.9809 28.5237 13.2761 28.7618C13.5904 29.019 14.0666 28.9618 14.3047 28.6285C15.4571 27.1047 17.219 25.8285 19.9904 25.8285C22.7618 25.8285 24.5332 27.1047 25.6761 28.6285C25.9332 28.9618 26.3999 29.019 26.7237 28.7618Z" fill="url(#paint8_radial_17_261)"/>
<path d="M26.9809 28.2856C27 28.1142 26.9619 27.9333 26.8476 27.7809C25.5047 25.9714 23.3619 24.3428 19.9999 24.3428C16.638 24.3428 14.4952 25.9714 13.1523 27.7809C13.038 27.9333 12.9999 28.1142 13.019 28.2856C14.4761 26.5142 16.6857 25.019 19.9999 25.019C23.3142 25.019 25.5333 26.5142 26.9809 28.2856Z" fill="url(#paint9_linear_17_261)"/>
<defs>
<radialGradient id="paint0_radial_17_261" cx="0" cy="0" r="1" gradientUnits="userSpaceOnUse" gradientTransform="translate(17.0019 13.8277) scale(18.3828)">
<stop stop-color="#FFE030"/>
<stop offset="1" stop-color="#FFB92E"/>
</radialGradient>
<radialGradient id="paint1_radial_17_261" cx="0" cy="0" r="1" gradientUnits="userSpaceOnUse" gradientTransform="translate(17.0019 13.8277) scale(14.4626)">
<stop stop-color="#FFEA5F"/>
<stop offset="1" stop-color="#FFBC47" stop-opacity="0"/>
</radialGradient>
<linearGradient id="paint2_linear_17_261" x1="13.565" y1="14.1448" x2="13.459" y2="12.2214" gradientUnits="userSpaceOnUse">
<stop offset="0.00132565" stop-color="#3C2200"/>
<stop offset="1" stop-color="#7A4400"/>
</linearGradient>
<radialGradient id="paint3_radial_17_261" cx="0" cy="0" r="1" gradientUnits="userSpaceOnUse" gradientTransform="translate(14.5813 18.4935) rotate(73.8539) scale(2.15303 1.39298)">
<stop offset="0.00132565" stop-color="#7A4400"/>
<stop offset="1" stop-color="#643800"/>
</radialGradient>
<linearGradient id="paint4_linear_17_261" x1="15.025" y1="16.2042" x2="15.025" y2="18.2722" gradientUnits="userSpaceOnUse">
<stop offset="0.00132565" stop-color="#3C2200"/>
<stop offset="1" stop-color="#512D00"/>
</linearGradient>
<radialGradient id="paint5_radial_17_261" cx="0" cy="0" r="1" gradientUnits="userSpaceOnUse" gradientTransform="translate(24.5319 18.4938) rotate(73.854) scale(2.15303 1.39298)">
<stop offset="0.00132565" stop-color="#7A4400"/>
<stop offset="1" stop-color="#643800"/>
</radialGradient>
<linearGradient id="paint6_linear_17_261" x1="26.444" y1="14.1997" x2="26.55" y2="12.2763" gradientUnits="userSpaceOnUse">
<stop offset="0.00132565" stop-color="#3C2200"/>
<stop offset="1" stop-color="#7A4400"/>
</linearGradient>
<linearGradient id="paint7_linear_17_261" x1="24.9751" y1="16.2586" x2="24.9751" y2="18.3266" gradientUnits="userSpaceOnUse">
<stop offset="0.00132565" stop-color="#3C2200"/>
<stop offset="1" stop-color="#512D00"/>
</linearGradient>
<radialGradient id="paint8_radial_17_261" cx="0" cy="0" r="1" gradientUnits="userSpaceOnUse" gradientTransform="translate(23.0521 24.6459) scale(5.92055 6.67779)">
<stop offset="0.00132565" stop-color="#7A4400"/>
<stop offset="1" stop-color="#643800"/>
</radialGradient>
<linearGradient id="paint9_linear_17_261" x1="13.0099" y1="26.314" x2="26.99" y2="26.314" gradientUnits="userSpaceOnUse">
<stop offset="0.00132565" stop-color="#3C2200"/>
<stop offset="1" stop-color="#512D00"/>
</linearGradient>
</defs>
</svg>
