<svg width="40" height="40" viewBox="0 0 40 40" fill="none" xmlns="http://www.w3.org/2000/svg">
<path d="M20.2375 35.475C28.6529 35.475 35.475 28.6529 35.475 20.2375C35.475 11.822 28.6529 5 20.2375 5C11.822 5 5 11.822 5 20.2375C5 28.6529 11.822 35.475 20.2375 35.475Z" fill="url(#paint0_radial_17_248)"/>
<path opacity="0.5" d="M20.2375 35.475C28.6529 35.475 35.475 28.6529 35.475 20.2375C35.475 11.822 28.6529 5 20.2375 5C11.822 5 5 11.822 5 20.2375C5 28.6529 11.822 35.475 20.2375 35.475Z" fill="url(#paint1_radial_17_248)"/>
<path d="M16.8852 12.3424C16.8852 11.7329 16.2261 11.3502 15.0922 11.3502C14.1283 11.3502 12.0093 11.8817 10.5493 13.7598C10.28 14.1071 10.691 14.2984 10.9604 14.0717C11.8604 13.3062 14.263 12.3282 16.1411 12.5337C16.8923 12.6188 16.8852 12.3424 16.8852 12.3424Z" fill="url(#paint2_linear_17_248)"/>
<path d="M15.2624 19.7485C16.0726 19.7485 16.7294 18.7553 16.7294 17.5302C16.7294 16.305 16.0726 15.3119 15.2624 15.3119C14.4521 15.3119 13.7953 16.305 13.7953 17.5302C13.7953 18.7553 14.4521 19.7485 15.2624 19.7485Z" fill="url(#paint3_radial_17_248)"/>
<path d="M15.2624 16.056C15.8931 16.056 16.4388 16.6017 16.7294 17.4168C16.7082 16.219 16.0632 15.2552 15.2624 15.2552C14.4615 15.2552 13.8166 16.219 13.7953 17.4168C14.0859 16.6088 14.6316 16.056 15.2624 16.056Z" fill="url(#paint4_linear_17_248)"/>
<path d="M23.5897 12.3424C23.5897 11.7329 24.2489 11.3502 25.3828 11.3502C26.3467 11.3502 28.4658 11.8817 29.9257 13.7598C30.195 14.1071 29.784 14.2984 29.5147 14.0717C28.6146 13.3062 26.212 12.3282 24.3339 12.5337C23.5827 12.6188 23.5897 12.3424 23.5897 12.3424Z" fill="url(#paint5_linear_17_248)"/>
<path d="M25.2128 19.7485C26.023 19.7485 26.6798 18.7553 26.6798 17.5302C26.6798 16.305 26.023 15.3119 25.2128 15.3119C24.4025 15.3119 23.7458 16.305 23.7458 17.5302C23.7458 18.7553 24.4025 19.7485 25.2128 19.7485Z" fill="url(#paint6_radial_17_248)"/>
<path d="M25.2128 16.056C24.582 16.056 24.0363 16.6017 23.7458 17.4168C23.767 16.219 24.4119 15.2552 25.2128 15.2552C26.0136 15.2552 26.6585 16.219 26.6798 17.4168C26.3892 16.6088 25.8435 16.056 25.2128 16.056Z" fill="url(#paint7_linear_17_248)"/>
<path d="M30.5282 22.8172C30.4148 22.7747 30.2872 22.7676 30.1738 22.8031C26.9562 23.7244 23.6181 24.1851 20.2446 24.1851C16.8711 24.1851 13.5259 23.7173 10.3154 22.8031C10.195 22.7676 10.0745 22.7747 9.96105 22.8172C9.6138 22.959 9.061 23.4834 9.79095 25.4891V25.4962C10.8682 28.0618 13.7244 32.5692 20.2375 32.5692C26.7365 32.5692 29.5926 28.0547 30.6983 25.4962C31.4211 23.4834 30.8754 22.959 30.5282 22.8172Z" fill="url(#paint8_radial_17_248)"/>
<path d="M20.2376 31.8535C22.9379 31.8535 24.9648 31.0243 26.4815 29.8903C24.816 29.1391 22.7607 28.65 20.2376 28.65C17.7146 28.65 15.6593 29.1461 13.9938 29.9045C15.5105 31.0243 17.5374 31.8535 20.2376 31.8535Z" fill="url(#paint9_radial_17_248)"/>
<path d="M30.3226 22.7747C30.3013 22.7747 30.28 22.7747 30.2517 22.7818C27.0057 23.7173 23.6393 24.1922 20.2304 24.1922C16.8214 24.1922 13.455 23.7173 10.2091 22.7818C10.1878 22.7747 10.1665 22.7747 10.1382 22.7747C9.91845 22.796 8.86955 23.0157 9.7696 25.4962V25.5033C10.2091 26.5381 10.939 27.8917 12.0801 29.132C11.0099 27.8634 12.3281 27.1617 14.674 27.4452C17.0199 27.7287 20.2304 27.7358 20.2304 27.7358C20.2304 27.7358 23.4338 27.7287 25.7867 27.4452C28.1326 27.1617 29.4508 27.8634 28.3807 29.132C29.5217 27.8917 30.2517 26.5381 30.6911 25.5033V25.4962C31.5912 23.0086 30.5423 22.7889 30.3226 22.7747Z" fill="url(#paint10_linear_17_248)"/>
<path d="M28.5154 26.2617C29.4084 26.0703 30.0817 25.3261 30.1667 24.4119L30.2517 23.5189C27.0058 24.4332 23.6394 24.9009 20.2375 24.9009C16.8357 24.9009 13.4692 24.4332 10.2233 23.5189L10.3083 24.4119C10.3934 25.3191 11.0667 26.0632 11.9597 26.2617C14.667 26.8499 17.4452 27.1405 20.2375 27.1405C23.0299 27.1405 25.8081 26.8428 28.5154 26.2617Z" fill="url(#paint11_radial_17_248)"/>
<defs>
<radialGradient id="paint0_radial_17_248" cx="0" cy="0" r="1" gradientUnits="userSpaceOnUse" gradientTransform="translate(17.2395 14.0623) scale(18.382)">
<stop stop-color="#FFDF30"/>
<stop offset="1" stop-color="#FFB82E"/>
</radialGradient>
<radialGradient id="paint1_radial_17_248" cx="0" cy="0" r="1" gradientUnits="userSpaceOnUse" gradientTransform="translate(17.2395 14.0622) scale(14.462)">
<stop stop-color="#FFE95F"/>
<stop offset="1" stop-color="#FFBB47" stop-opacity="0"/>
</radialGradient>
<linearGradient id="paint2_linear_17_248" x1="13.6721" y1="13.3639" x2="13.6721" y2="11.7583" gradientUnits="userSpaceOnUse">
<stop offset="0.00132565" stop-color="#3C2200"/>
<stop offset="1" stop-color="#7A4400"/>
</linearGradient>
<radialGradient id="paint3_radial_17_248" cx="0" cy="0" r="1" gradientUnits="userSpaceOnUse" gradientTransform="translate(14.8177 17.5818) rotate(73.8539) scale(2.15295 1.39292)">
<stop offset="0.00132565" stop-color="#7A4400"/>
<stop offset="1" stop-color="#643800"/>
</radialGradient>
<linearGradient id="paint4_linear_17_248" x1="15.2627" y1="15.2957" x2="15.2627" y2="17.3637" gradientUnits="userSpaceOnUse">
<stop offset="0.00132565" stop-color="#3C2200"/>
<stop offset="1" stop-color="#512D00"/>
</linearGradient>
<linearGradient id="paint5_linear_17_248" x1="26.8029" y1="13.3639" x2="26.8029" y2="11.7583" gradientUnits="userSpaceOnUse">
<stop offset="0.00132565" stop-color="#3C2200"/>
<stop offset="1" stop-color="#7A4400"/>
</linearGradient>
<radialGradient id="paint6_radial_17_248" cx="0" cy="0" r="1" gradientUnits="userSpaceOnUse" gradientTransform="translate(24.7678 17.5822) rotate(73.8539) scale(2.15295 1.39292)">
<stop offset="0.00132565" stop-color="#7A4400"/>
<stop offset="1" stop-color="#643800"/>
</radialGradient>
<linearGradient id="paint7_linear_17_248" x1="25.2124" y1="15.2957" x2="25.2124" y2="17.3637" gradientUnits="userSpaceOnUse">
<stop offset="0.00132565" stop-color="#3C2200"/>
<stop offset="1" stop-color="#512D00"/>
</linearGradient>
<radialGradient id="paint8_radial_17_248" cx="0" cy="0" r="1" gradientUnits="userSpaceOnUse" gradientTransform="translate(20.2375 27.6746) scale(8.39405)">
<stop offset="0.00132565" stop-color="#7A4400"/>
<stop offset="1" stop-color="#643800"/>
</radialGradient>
<radialGradient id="paint9_radial_17_248" cx="0" cy="0" r="1" gradientUnits="userSpaceOnUse" gradientTransform="translate(20.3633 30.6275) scale(6.95685 2.10305)">
<stop offset="0.2479" stop-color="#FF0000"/>
<stop offset="1" stop-color="#C10000"/>
</radialGradient>
<linearGradient id="paint10_linear_17_248" x1="30.9329" y1="25.9491" x2="9.67205" y2="25.9491" gradientUnits="userSpaceOnUse">
<stop offset="0.00132565" stop-color="#3C2200"/>
<stop offset="0.5" stop-color="#512D00"/>
<stop offset="1" stop-color="#3C2200"/>
</linearGradient>
<radialGradient id="paint11_radial_17_248" cx="0" cy="0" r="1" gradientUnits="userSpaceOnUse" gradientTransform="translate(20.2375 25.333) scale(18.4083)">
<stop offset="0.00132565" stop-color="white"/>
<stop offset="1" stop-color="#A8BBBD"/>
</radialGradient>
</defs>
</svg>
