<svg width="55" height="55" viewBox="0 0 55 55" fill="none" xmlns="http://www.w3.org/2000/svg">
<path d="M27.6309 48.1905C39.2026 48.1905 48.5833 38.8098 48.5833 27.2381C48.5833 15.6664 39.2026 6.28571 27.6309 6.28571C16.0592 6.28571 6.67854 15.6664 6.67854 27.2381C6.67854 38.8098 16.0592 48.1905 27.6309 48.1905Z" fill="url(#paint0_radial_17_312)"/>
<path opacity="0.5" d="M27.6309 48.1905C39.2026 48.1905 48.5833 38.8098 48.5833 27.2381C48.5833 15.6664 39.2026 6.28571 27.6309 6.28571C16.0592 6.28571 6.67854 15.6664 6.67854 27.2381C6.67854 38.8098 16.0592 48.1905 27.6309 48.1905Z" fill="url(#paint1_radial_17_312)"/>
<path d="M27.6309 48.1905C39.2026 48.1905 48.5833 38.8098 48.5833 27.2381C48.5833 15.6664 39.2026 6.28571 27.6309 6.28571C16.0592 6.28571 6.67854 15.6664 6.67854 27.2381C6.67854 38.8098 16.0592 48.1905 27.6309 48.1905Z" fill="url(#paint2_radial_17_312)"/>
<path d="M27.6309 34.9904C33.7725 34.9904 35.7499 41.0666 33.8643 40.1106C31.3499 38.8404 29.7654 38.7094 27.6309 38.7094C25.4963 38.7094 23.8987 38.8272 21.3975 40.1106C19.5119 41.0666 21.4893 34.9904 27.6309 34.9904Z" fill="#643800"/>
<path d="M35.894 28.4428C35.894 28.4428 32.1094 28.6392 30.6166 26.1904C30.5249 26.0333 30.4594 25.863 30.4332 25.6928C30.3808 25.3392 30.6558 24.9333 31.3761 25.169C35.8284 26.6488 38.107 25.5618 39.8356 24.7762C40.5034 24.475 41.2499 25.1166 41.0011 25.6666C39.7702 28.4428 35.894 28.4428 35.894 28.4428Z" fill="url(#paint3_radial_17_312)"/>
<path d="M40.582 19.4462C40.6475 20.2843 39.7701 20.8736 38.2117 20.9783C36.8891 21.07 33.9296 20.5462 31.7427 18.1105C31.3367 17.6653 31.8867 17.3641 32.2796 17.6391C33.5891 18.595 36.9808 19.7081 39.5343 19.2498C40.5558 19.0664 40.582 19.4462 40.582 19.4462Z" fill="url(#paint4_linear_17_312)"/>
<path d="M19.3678 28.4428C19.3678 28.4428 23.1523 28.6392 24.6452 26.1904C24.7369 26.0333 24.8023 25.863 24.8285 25.6928C24.8809 25.3392 24.6059 24.9333 23.8857 25.169C19.4333 26.6488 17.1547 25.5618 15.4261 24.7762C14.7583 24.475 14.0119 25.1166 14.2607 25.6666C15.4916 28.4428 19.3678 28.4428 19.3678 28.4428Z" fill="url(#paint5_radial_17_312)"/>
<path d="M14.6797 19.4462C14.6142 20.2843 15.4916 20.8736 17.0499 20.9783C18.3725 21.07 21.3321 20.5462 23.519 18.1105C23.9249 17.6653 23.3749 17.3641 22.9821 17.6391C21.6725 18.595 18.2809 19.7081 15.7273 19.2498C14.7059 19.0664 14.6797 19.4462 14.6797 19.4462Z" fill="url(#paint6_linear_17_312)"/>
<path d="M24.7631 25.3258C24.6322 25.1294 24.3572 25.0116 23.8857 25.1687C19.4334 26.6485 17.1548 25.5616 15.4262 24.7758C15.0726 24.6187 14.6928 24.7235 14.4572 24.9461C17.0631 27.3032 22.6155 27.3425 24.7631 25.3258Z" fill="url(#paint7_linear_17_312)"/>
<path d="M7.37261 19.5118C7.37261 22.3011 9.62493 24.5535 12.4143 24.5535C15.2035 24.5535 17.4559 22.3011 17.4559 19.5118C17.4559 14.1166 12.4143 8.7345 12.4143 8.7345C12.4143 8.7345 7.37261 14.1035 7.37261 19.5118Z" fill="url(#paint8_linear_17_312)"/>
<path opacity="0.5" d="M12.3619 8.79993C11.9166 11.563 9.11426 14.1558 9.72971 19.4202C10.1881 23.3094 16.0155 23.5452 17.4428 19.8261C17.2857 22.4582 15.0987 24.5535 12.4143 24.5535C9.62493 24.5535 7.37261 22.3011 7.37261 19.5118C7.37261 14.457 11.7857 9.42851 12.3619 8.79993Z" fill="url(#paint9_radial_17_312)"/>
<path d="M12.4143 24.5534C9.62493 24.5534 7.37261 22.301 7.37261 19.5117C7.37261 14.6534 11.4583 9.80813 12.2702 8.89142C11.3928 11.6414 8.56426 15.4914 8.56426 19.2367C8.56426 22.1962 12.9249 25.7974 17.1678 21.201C16.4737 23.1522 14.6143 24.5534 12.4143 24.5534Z" fill="url(#paint10_radial_17_312)"/>
<path d="M7.37261 19.5118C7.37261 22.3011 9.62493 24.5535 12.4143 24.5535C15.2035 24.5535 17.4559 22.3011 17.4559 19.5118C17.4559 14.1166 12.4143 8.7345 12.4143 8.7345C12.4143 8.7345 7.37261 14.1035 7.37261 19.5118Z" fill="url(#paint11_radial_17_312)"/>
<path d="M7.37261 19.5118C7.37261 22.3011 9.62493 24.5535 12.4143 24.5535C15.2035 24.5535 17.4559 22.3011 17.4559 19.5118C17.4559 14.1166 12.4143 8.7345 12.4143 8.7345C12.4143 8.7345 7.37261 14.1035 7.37261 19.5118Z" fill="url(#paint12_radial_17_312)"/>
<path d="M7.37261 19.5118C7.37261 22.3011 9.62493 24.5535 12.4143 24.5535C15.2035 24.5535 17.4559 22.3011 17.4559 19.5118C17.4559 14.1166 12.4143 8.7345 12.4143 8.7345C12.4143 8.7345 7.37261 14.1035 7.37261 19.5118Z" fill="url(#paint13_radial_17_312)"/>
<path d="M30.4988 25.3261C30.6298 25.1297 30.9048 25.0119 31.3762 25.169C35.8286 26.6487 38.1072 25.5619 39.8357 24.7761C40.1893 24.619 40.5691 24.7237 40.8048 24.9463C38.1988 27.3035 32.6464 27.3428 30.4988 25.3261Z" fill="url(#paint14_linear_17_312)"/>
<path d="M27.6309 36.0642C31.2583 36.0642 33.5499 38.107 34.5452 39.8094C34.5975 38.5784 32.3452 34.9904 27.6309 34.9904C22.9035 34.9904 20.6511 38.5784 20.7166 39.8094C21.7119 38.1201 24.0035 36.0642 27.6309 36.0642Z" fill="url(#paint15_linear_17_312)"/>
<defs>
<radialGradient id="paint0_radial_17_312" cx="0" cy="0" r="1" gradientUnits="userSpaceOnUse" gradientTransform="translate(23.5085 18.7468) scale(25.2764)">
<stop stop-color="#FFE030"/>
<stop offset="1" stop-color="#FFB92E"/>
</radialGradient>
<radialGradient id="paint1_radial_17_312" cx="0" cy="0" r="1" gradientUnits="userSpaceOnUse" gradientTransform="translate(23.5085 18.7468) scale(19.886)">
<stop stop-color="#FFEA5F"/>
<stop offset="1" stop-color="#FFBC47" stop-opacity="0"/>
</radialGradient>
<radialGradient id="paint2_radial_17_312" cx="0" cy="0" r="1" gradientUnits="userSpaceOnUse" gradientTransform="translate(11.889 17.5467) rotate(72.6921) scale(18.928 10.1806)">
<stop stop-color="#EB672A" stop-opacity="0.5"/>
<stop offset="0.3462" stop-color="#DC641B" stop-opacity="0.2846"/>
<stop offset="0.8036" stop-color="#C25E00" stop-opacity="0"/>
</radialGradient>
<radialGradient id="paint3_radial_17_312" cx="0" cy="0" r="1" gradientUnits="userSpaceOnUse" gradientTransform="translate(35.8234 26.6565) rotate(177.118) scale(4.05025 1.79975)">
<stop offset="0.00132565" stop-color="#7A4400"/>
<stop offset="1" stop-color="#643800"/>
</radialGradient>
<linearGradient id="paint4_linear_17_312" x1="36.4679" y1="22.2601" x2="36.1732" y2="19.4153" gradientUnits="userSpaceOnUse">
<stop offset="0.00132565" stop-color="#3C2200"/>
<stop offset="1" stop-color="#7A4400"/>
</linearGradient>
<radialGradient id="paint5_radial_17_312" cx="0" cy="0" r="1" gradientUnits="userSpaceOnUse" gradientTransform="translate(19.4373 26.6566) rotate(2.88189) scale(4.05025 1.79975)">
<stop offset="0.00132565" stop-color="#7A4400"/>
<stop offset="1" stop-color="#643800"/>
</radialGradient>
<linearGradient id="paint6_linear_17_312" x1="18.7937" y1="22.2605" x2="19.0885" y2="19.4157" gradientUnits="userSpaceOnUse">
<stop offset="0.00132565" stop-color="#3C2200"/>
<stop offset="1" stop-color="#7A4400"/>
</linearGradient>
<linearGradient id="paint7_linear_17_312" x1="19.704" y1="24.0314" x2="19.3929" y2="27.4853" gradientUnits="userSpaceOnUse">
<stop offset="0.00132565" stop-color="#3C2200"/>
<stop offset="1" stop-color="#512D00"/>
</linearGradient>
<linearGradient id="paint8_linear_17_312" x1="26.8064" y1="20.9043" x2="-1.63692" y2="12.6836" gradientUnits="userSpaceOnUse">
<stop stop-color="#D1F2FF"/>
<stop offset="0.668" stop-color="#80DAFE"/>
<stop offset="1" stop-color="#0099D6"/>
</linearGradient>
<radialGradient id="paint9_radial_17_312" cx="0" cy="0" r="1" gradientUnits="userSpaceOnUse" gradientTransform="translate(13.0124 15.9087) rotate(169.572) scale(8.0751 12.4349)">
<stop offset="0.0599486" stop-color="#80DAFE"/>
<stop offset="0.566" stop-color="#80DAFE"/>
<stop offset="1" stop-color="#0099D6"/>
</radialGradient>
<radialGradient id="paint10_radial_17_312" cx="0" cy="0" r="1" gradientUnits="userSpaceOnUse" gradientTransform="translate(11.3987 16.8067) rotate(180) scale(6.5282 11.2631)">
<stop offset="0.3432" stop-color="#80DAFE"/>
<stop offset="1" stop-color="#0099D6"/>
</radialGradient>
<radialGradient id="paint11_radial_17_312" cx="0" cy="0" r="1" gradientUnits="userSpaceOnUse" gradientTransform="translate(14.411 15.2036) rotate(-103.604) scale(7.32676 3.22809)">
<stop stop-color="white" stop-opacity="0.25"/>
<stop offset="1" stop-color="white" stop-opacity="0"/>
</radialGradient>
<radialGradient id="paint12_radial_17_312" cx="0" cy="0" r="1" gradientUnits="userSpaceOnUse" gradientTransform="translate(13.008 15.4271) rotate(108.995) scale(11.4557 8.70602)">
<stop offset="0.5858" stop-color="#0099D6" stop-opacity="0"/>
<stop offset="0.7213" stop-color="#1477E5" stop-opacity="0.1635"/>
<stop offset="0.9048" stop-color="#2D4FF8" stop-opacity="0.385"/>
<stop offset="1" stop-color="#3640FF" stop-opacity="0.5"/>
</radialGradient>
<radialGradient id="paint13_radial_17_312" cx="0" cy="0" r="1" gradientUnits="userSpaceOnUse" gradientTransform="translate(14.411 15.2036) rotate(-103.604) scale(9.21071 4.05813)">
<stop stop-color="white" stop-opacity="0.45"/>
<stop offset="1" stop-color="white" stop-opacity="0"/>
</radialGradient>
<linearGradient id="paint14_linear_17_312" x1="35.5574" y1="24.0317" x2="35.8684" y2="27.4856" gradientUnits="userSpaceOnUse">
<stop offset="0.00132565" stop-color="#3C2200"/>
<stop offset="1" stop-color="#512D00"/>
</linearGradient>
<linearGradient id="paint15_linear_17_312" x1="27.6306" y1="33.4056" x2="27.6306" y2="38.254" gradientUnits="userSpaceOnUse">
<stop offset="0.00132565" stop-color="#3C2200"/>
<stop offset="1" stop-color="#512D00"/>
</linearGradient>
</defs>
</svg>
