<svg width="55" height="55" viewBox="0 0 55 55" fill="none" xmlns="http://www.w3.org/2000/svg">
<path d="M27.8266 48.7781C39.3978 48.7781 48.7781 39.3978 48.7781 27.8266C48.7781 16.2553 39.3978 6.875 27.8266 6.875C16.2553 6.875 6.875 16.2553 6.875 27.8266C6.875 39.3978 16.2553 48.7781 27.8266 48.7781Z" fill="url(#paint0_radial_17_341)"/>
<path opacity="0.5" d="M27.8266 48.7781C39.3978 48.7781 48.7781 39.3978 48.7781 27.8266C48.7781 16.2553 39.3978 6.875 27.8266 6.875C16.2553 6.875 6.875 16.2553 6.875 27.8266C6.875 39.3978 16.2553 48.7781 27.8266 48.7781Z" fill="url(#paint1_radial_17_341)"/>
<path d="M23.2172 16.9707C23.2172 16.1327 22.311 15.6064 20.7518 15.6064C19.4264 15.6064 16.5127 16.3373 14.5053 18.9197C14.1349 19.3972 14.7001 19.6603 15.0705 19.3485C16.3081 18.296 19.6116 16.9513 22.194 17.2338C23.227 17.3508 23.2172 16.9707 23.2172 16.9707Z" fill="url(#paint2_linear_17_341)"/>
<path d="M20.9857 27.1542C22.0998 27.1542 23.0029 25.7885 23.0029 24.104C23.0029 22.4194 22.0998 21.0538 20.9857 21.0538C19.8716 21.0538 18.9685 22.4194 18.9685 24.104C18.9685 25.7885 19.8716 27.1542 20.9857 27.1542Z" fill="url(#paint3_radial_17_341)"/>
<path d="M20.9857 22.0771C21.853 22.0771 22.6033 22.8274 23.0029 23.9481C22.9737 22.3012 22.0869 20.9759 20.9857 20.9759C19.8846 20.9759 18.9978 22.3012 18.9685 23.9481C19.368 22.8372 20.1184 22.0771 20.9857 22.0771Z" fill="url(#paint4_linear_17_341)"/>
<path d="M32.4358 16.9707C32.4358 16.1327 33.3422 15.6064 34.9014 15.6064C36.2266 15.6064 39.1404 16.3373 41.1478 18.9197C41.5181 19.3972 40.9529 19.6603 40.5827 19.3485C39.345 18.296 36.0415 16.9513 33.4591 17.2338C32.4261 17.3508 32.4358 16.9707 32.4358 16.9707Z" fill="url(#paint5_linear_17_341)"/>
<path d="M34.6676 27.1542C35.7816 27.1542 36.6848 25.7885 36.6848 24.104C36.6848 22.4194 35.7816 21.0538 34.6676 21.0538C33.5535 21.0538 32.6504 22.4194 32.6504 24.104C32.6504 25.7885 33.5535 27.1542 34.6676 27.1542Z" fill="url(#paint6_radial_17_341)"/>
<path d="M34.6676 22.0771C33.8002 22.0771 33.0499 22.8274 32.6504 23.9481C32.6796 22.3012 33.5664 20.9759 34.6676 20.9759C35.7688 20.9759 36.6555 22.3012 36.6848 23.9481C36.2852 22.8372 35.5349 22.0771 34.6676 22.0771Z" fill="url(#paint7_linear_17_341)"/>
<path d="M41.9762 31.3737C41.8203 31.3153 41.6448 31.3055 41.4889 31.3543C37.0648 32.6211 32.4749 33.2545 27.8363 33.2545C23.1978 33.2545 18.5981 32.6114 14.1837 31.3543C14.0181 31.3055 13.8524 31.3153 13.6964 31.3737C13.219 31.5686 12.4589 32.2897 13.4626 35.0476V35.0573C14.9438 38.585 18.871 44.7827 27.8266 44.7827C36.7626 44.7827 40.6898 38.5752 42.2101 35.0573C43.204 32.2897 42.4537 31.5686 41.9762 31.3737Z" fill="url(#paint8_radial_17_341)"/>
<path d="M27.8267 43.7985C31.5395 43.7985 34.3265 42.6583 36.412 41.0992C34.1219 40.0662 31.2959 39.3937 27.8267 39.3937C24.3575 39.3937 21.5315 40.0759 19.2414 41.1186C21.3269 42.6583 24.1139 43.7985 27.8267 43.7985Z" fill="url(#paint9_radial_17_341)"/>
<path d="M41.6935 31.3152C41.6642 31.3152 41.635 31.3152 41.596 31.3249C37.1328 32.6113 32.504 33.2642 27.8167 33.2642C23.1294 33.2642 18.5006 32.6113 14.0374 31.3249C14.0082 31.3152 13.9789 31.3152 13.94 31.3152C13.6379 31.3445 12.1956 31.6466 13.4332 35.0572V35.067C14.0374 36.4898 15.0411 38.3511 16.6101 40.0564C15.1386 38.3121 16.9511 37.3473 20.1767 37.7371C23.4023 38.1269 27.8167 38.1366 27.8167 38.1366C27.8167 38.1366 32.2214 38.1269 35.4567 37.7371C38.6823 37.3473 40.4948 38.3121 39.0234 40.0564C40.5923 38.3511 41.596 36.4898 42.2002 35.067V35.0572C43.4378 31.6368 41.9956 31.3347 41.6935 31.3152Z" fill="url(#paint10_linear_17_341)"/>
<path d="M39.2086 36.1098C40.4365 35.8466 41.3623 34.8234 41.4791 33.5663L41.5961 32.3385C37.1329 33.5956 32.5041 34.2388 27.8266 34.2388C23.149 34.2388 18.5201 33.5956 14.057 32.3385L14.1739 33.5663C14.2909 34.8137 15.2166 35.8369 16.4445 36.1098C20.1671 36.9186 23.9871 37.3181 27.8266 37.3181C31.666 37.3181 35.4861 36.9089 39.2086 36.1098Z" fill="url(#paint11_radial_17_341)"/>
<defs>
<radialGradient id="paint0_radial_17_341" cx="0" cy="0" r="1" gradientUnits="userSpaceOnUse" gradientTransform="translate(23.7043 19.3356) scale(25.2753)">
<stop stop-color="#FFDF30"/>
<stop offset="1" stop-color="#FFB82E"/>
</radialGradient>
<radialGradient id="paint1_radial_17_341" cx="0" cy="0" r="1" gradientUnits="userSpaceOnUse" gradientTransform="translate(23.7043 19.3356) scale(19.8852)">
<stop stop-color="#FFE95F"/>
<stop offset="1" stop-color="#FFBB47" stop-opacity="0"/>
</radialGradient>
<linearGradient id="paint2_linear_17_341" x1="18.7991" y1="18.3753" x2="18.7991" y2="16.1676" gradientUnits="userSpaceOnUse">
<stop offset="0.00132565" stop-color="#3C2200"/>
<stop offset="1" stop-color="#7A4400"/>
</linearGradient>
<radialGradient id="paint3_radial_17_341" cx="0" cy="0" r="1" gradientUnits="userSpaceOnUse" gradientTransform="translate(20.3743 24.175) rotate(73.8539) scale(2.9603 1.91526)">
<stop offset="0.00132565" stop-color="#7A4400"/>
<stop offset="1" stop-color="#643800"/>
</radialGradient>
<linearGradient id="paint4_linear_17_341" x1="20.9862" y1="21.0316" x2="20.9862" y2="23.8751" gradientUnits="userSpaceOnUse">
<stop offset="0.00132565" stop-color="#3C2200"/>
<stop offset="1" stop-color="#512D00"/>
</linearGradient>
<linearGradient id="paint5_linear_17_341" x1="36.8539" y1="18.3753" x2="36.8539" y2="16.1676" gradientUnits="userSpaceOnUse">
<stop offset="0.00132565" stop-color="#3C2200"/>
<stop offset="1" stop-color="#7A4400"/>
</linearGradient>
<radialGradient id="paint6_radial_17_341" cx="0" cy="0" r="1" gradientUnits="userSpaceOnUse" gradientTransform="translate(34.0557 24.1755) rotate(73.8539) scale(2.9603 1.91526)">
<stop offset="0.00132565" stop-color="#7A4400"/>
<stop offset="1" stop-color="#643800"/>
</radialGradient>
<linearGradient id="paint7_linear_17_341" x1="34.667" y1="21.0316" x2="34.667" y2="23.8751" gradientUnits="userSpaceOnUse">
<stop offset="0.00132565" stop-color="#3C2200"/>
<stop offset="1" stop-color="#512D00"/>
</linearGradient>
<radialGradient id="paint8_radial_17_341" cx="0" cy="0" r="1" gradientUnits="userSpaceOnUse" gradientTransform="translate(27.8266 38.0526) scale(11.5418)">
<stop offset="0.00132565" stop-color="#7A4400"/>
<stop offset="1" stop-color="#643800"/>
</radialGradient>
<radialGradient id="paint9_radial_17_341" cx="0" cy="0" r="1" gradientUnits="userSpaceOnUse" gradientTransform="translate(27.9995 42.1128) scale(9.56567 2.8917)">
<stop offset="0.2479" stop-color="#FF0000"/>
<stop offset="1" stop-color="#C10000"/>
</radialGradient>
<linearGradient id="paint10_linear_17_341" x1="42.5327" y1="35.68" x2="13.2991" y2="35.68" gradientUnits="userSpaceOnUse">
<stop offset="0.00132565" stop-color="#3C2200"/>
<stop offset="0.5" stop-color="#512D00"/>
<stop offset="1" stop-color="#3C2200"/>
</linearGradient>
<radialGradient id="paint11_radial_17_341" cx="0" cy="0" r="1" gradientUnits="userSpaceOnUse" gradientTransform="translate(27.8266 34.8329) scale(25.3115)">
<stop offset="0.00132565" stop-color="white"/>
<stop offset="1" stop-color="#A8BBBD"/>
</radialGradient>
</defs>
</svg>
