<svg width="55" height="55" viewBox="0 0 55 55" fill="none" xmlns="http://www.w3.org/2000/svg">
<path d="M27.5 48.4524C39.0717 48.4524 48.4524 39.0716 48.4524 27.5C48.4524 15.9283 39.0717 6.54761 27.5 6.54761C15.9283 6.54761 6.54761 15.9283 6.54761 27.5C6.54761 39.0716 15.9283 48.4524 27.5 48.4524Z" fill="url(#paint0_radial_17_330)"/>
<path opacity="0.5" d="M27.5 48.4524C39.0717 48.4524 48.4524 39.0716 48.4524 27.5C48.4524 15.9283 39.0717 6.54761 27.5 6.54761C15.9283 6.54761 6.54761 15.9283 6.54761 27.5C6.54761 39.0716 15.9283 48.4524 27.5 48.4524Z" fill="url(#paint1_radial_17_330)"/>
<path d="M23.7154 18.3334C23.8464 17.3382 23.0214 16.5918 21.4762 16.3953C20.1536 16.2251 17.1548 16.7227 14.7714 19.5382C14.3262 20.062 14.85 20.4418 15.269 20.1274C16.6572 19.0406 20.1404 17.862 22.6548 18.5298C23.6631 18.7786 23.7154 18.3334 23.7154 18.3334Z" fill="url(#paint2_linear_17_330)"/>
<path d="M20.6641 28.3904C21.7779 28.3904 22.6808 27.0243 22.6808 25.3392C22.6808 23.654 21.7779 22.288 20.6641 22.288C19.5503 22.288 18.6474 23.654 18.6474 25.3392C18.6474 27.0243 19.5503 28.3904 20.6641 28.3904Z" fill="url(#paint3_radial_17_330)"/>
<path d="M20.6641 23.3225C21.5284 23.3225 22.2879 24.082 22.6808 25.1952C22.6546 23.5452 21.7641 22.2225 20.6641 22.2225C19.5641 22.2225 18.6736 23.5452 18.6474 25.1952C19.0403 24.082 19.7867 23.3225 20.6641 23.3225Z" fill="url(#paint4_linear_17_330)"/>
<path d="M34.3358 28.3904C35.4496 28.3904 36.3525 27.0243 36.3525 25.3392C36.3525 23.654 35.4496 22.288 34.3358 22.288C33.222 22.288 32.3191 23.654 32.3191 25.3392C32.3191 27.0243 33.222 28.3904 34.3358 28.3904Z" fill="url(#paint5_radial_17_330)"/>
<path d="M34.3358 23.4013C33.4715 23.4013 32.712 24.1608 32.3191 25.2739C32.3453 23.6239 33.2358 22.3013 34.3358 22.3013C35.4358 22.3013 36.3263 23.6239 36.3525 25.2739C35.9596 24.1608 35.2132 23.4013 34.3358 23.4013Z" fill="url(#paint6_linear_17_330)"/>
<path d="M31.2843 18.3334C31.1534 17.3382 31.9784 16.5918 33.5237 16.3953C34.8463 16.2251 37.8451 16.7227 40.2284 19.5382C40.6737 20.062 40.1499 20.4418 39.7308 20.1274C38.3427 19.0406 34.8594 17.862 32.3451 18.5298C31.3367 18.7786 31.2843 18.3334 31.2843 18.3334Z" fill="url(#paint7_linear_17_330)"/>
<path d="M36.3264 36.6406H18.674C18.1371 36.6406 17.6919 36.1954 17.6919 35.6584C17.6919 35.1216 18.1371 34.6763 18.674 34.6763H36.3264C36.8633 34.6763 37.3086 35.1216 37.3086 35.6584C37.3086 36.1954 36.8633 36.6406 36.3264 36.6406Z" fill="url(#paint8_radial_17_330)"/>
<path d="M18.5824 35.2001H36.4312C36.8109 35.2001 37.1514 35.4227 37.3086 35.737C37.3086 35.7108 37.3086 35.6846 37.3086 35.6584C37.3086 35.1216 36.8633 34.6763 36.3264 34.6763H18.674C18.1371 34.6763 17.6919 35.1216 17.6919 35.6584C17.6919 35.6846 17.6919 35.7108 17.6919 35.737C17.8621 35.4096 18.1895 35.2001 18.5824 35.2001Z" fill="url(#paint9_linear_17_330)"/>
<defs>
<radialGradient id="paint0_radial_17_330" cx="0" cy="0" r="1" gradientUnits="userSpaceOnUse" gradientTransform="translate(23.3775 19.0087) scale(25.2764)">
<stop stop-color="#FFE030"/>
<stop offset="1" stop-color="#FFB92E"/>
</radialGradient>
<radialGradient id="paint1_radial_17_330" cx="0" cy="0" r="1" gradientUnits="userSpaceOnUse" gradientTransform="translate(23.3775 19.0087) scale(19.886)">
<stop stop-color="#FFEA5F"/>
<stop offset="1" stop-color="#FFBC47" stop-opacity="0"/>
</radialGradient>
<linearGradient id="paint2_linear_17_330" x1="19.1216" y1="19.4432" x2="19.4612" y2="16.8163" gradientUnits="userSpaceOnUse">
<stop offset="0.00132565" stop-color="#3C2200"/>
<stop offset="1" stop-color="#7A4400"/>
</linearGradient>
<radialGradient id="paint3_radial_17_330" cx="0" cy="0" r="1" gradientUnits="userSpaceOnUse" gradientTransform="translate(20.0471 25.4196) rotate(73.8539) scale(2.96042 1.91535)">
<stop offset="0.00132565" stop-color="#7A4400"/>
<stop offset="1" stop-color="#643800"/>
</radialGradient>
<linearGradient id="paint4_linear_17_330" x1="20.6592" y1="22.2762" x2="20.6592" y2="25.1197" gradientUnits="userSpaceOnUse">
<stop offset="0.00132565" stop-color="#3C2200"/>
<stop offset="1" stop-color="#512D00"/>
</linearGradient>
<radialGradient id="paint5_radial_17_330" cx="0" cy="0" r="1" gradientUnits="userSpaceOnUse" gradientTransform="translate(33.7294 25.4201) rotate(73.8539) scale(2.96043 1.91535)">
<stop offset="0.00132565" stop-color="#7A4400"/>
<stop offset="1" stop-color="#643800"/>
</radialGradient>
<linearGradient id="paint6_linear_17_330" x1="34.3408" y1="22.3512" x2="34.3408" y2="25.1947" gradientUnits="userSpaceOnUse">
<stop offset="0.00132565" stop-color="#3C2200"/>
<stop offset="1" stop-color="#512D00"/>
</linearGradient>
<linearGradient id="paint7_linear_17_330" x1="35.8788" y1="19.4439" x2="35.5393" y2="16.817" gradientUnits="userSpaceOnUse">
<stop offset="0.00132565" stop-color="#3C2200"/>
<stop offset="1" stop-color="#7A4400"/>
</linearGradient>
<radialGradient id="paint8_radial_17_330" cx="0" cy="0" r="1" gradientUnits="userSpaceOnUse" gradientTransform="translate(27.5002 35.653) scale(6.97022 1.25395)">
<stop offset="0.00132565" stop-color="#7A4400"/>
<stop offset="1" stop-color="#643800"/>
</radialGradient>
<linearGradient id="paint9_linear_17_330" x1="17.6919" y1="35.1995" x2="37.3086" y2="35.1995" gradientUnits="userSpaceOnUse">
<stop offset="0.00132565" stop-color="#3C2200"/>
<stop offset="1" stop-color="#512D00"/>
</linearGradient>
</defs>
</svg>
