<svg width="55" height="55" viewBox="0 0 55 55" fill="none" xmlns="http://www.w3.org/2000/svg">
<path d="M27.5001 48.4524C39.0717 48.4524 48.4525 39.0717 48.4525 27.5C48.4525 15.9283 39.0717 6.54761 27.5001 6.54761C15.9284 6.54761 6.5477 15.9283 6.5477 27.5C6.5477 39.0717 15.9284 48.4524 27.5001 48.4524Z" fill="url(#paint0_radial_17_301)"/>
<path opacity="0.5" d="M27.5001 48.4524C39.0717 48.4524 48.4525 39.0717 48.4525 27.5C48.4525 15.9283 39.0717 6.54761 27.5001 6.54761C15.9284 6.54761 6.5477 15.9283 6.5477 27.5C6.5477 39.0717 15.9284 48.4524 27.5001 48.4524Z" fill="url(#paint1_radial_17_301)"/>
<path d="M13.3703 21.8821C13.475 22.7202 14.4441 23.1262 15.9893 22.9166C17.3119 22.7464 20.1012 21.6595 21.7643 18.8309C22.0655 18.3071 21.4762 18.1238 21.1489 18.4773C20.0619 19.669 16.9453 21.4238 14.3524 21.4762C13.3179 21.5154 13.3703 21.8821 13.3703 21.8821Z" fill="url(#paint2_linear_17_301)"/>
<path d="M19.0668 30.0928C19.0668 30.0928 15.5704 29.8964 14.4834 27.3035C14.418 27.1463 14.3786 26.963 14.3656 26.7928C14.3525 26.4392 14.6536 26.0594 15.2953 26.3737C19.2108 28.2987 21.3715 27.2249 22.9822 26.4523C23.6108 26.1511 24.2001 26.7797 24.043 27.3558C23.9906 27.5261 23.9644 27.6964 23.8858 27.8535C22.5632 30.3023 19.0668 30.0928 19.0668 30.0928Z" fill="url(#paint3_radial_17_301)"/>
<path d="M24.056 27.2773C24.1608 26.7142 23.5846 26.1511 22.9822 26.4392C21.3715 27.1987 19.2108 28.2856 15.2953 26.3606C14.6536 26.0464 14.3525 26.4392 14.3656 26.7797C14.3656 26.7928 14.3656 26.819 14.3656 26.832C15.2298 27.0808 17.0501 28.1547 19.106 28.1547C21.5156 28.1678 23.0477 27.0023 24.056 27.2773Z" fill="url(#paint4_linear_17_301)"/>
<path d="M41.6298 21.8951C41.525 22.7331 40.556 23.1391 39.0107 22.9295C37.6881 22.7593 34.8988 21.6725 33.2357 18.8439C32.9345 18.3201 33.5238 18.1367 33.8512 18.4903C34.9381 19.682 38.0548 21.4367 40.6477 21.4891C41.6822 21.5284 41.6298 21.8951 41.6298 21.8951Z" fill="url(#paint5_linear_17_301)"/>
<path d="M35.9465 30.0928C35.9465 30.0928 39.4429 29.8964 40.5298 27.3035C40.5953 27.1463 40.6346 26.963 40.6477 26.7928C40.6607 26.4392 40.3596 26.0594 39.7179 26.3737C35.8024 28.2987 33.6417 27.2249 32.031 26.4523C31.4024 26.1511 30.8131 26.7797 30.9702 27.3558C31.0226 27.5261 31.0488 27.6964 31.1274 27.8535C32.45 30.3023 35.9465 30.0928 35.9465 30.0928Z" fill="url(#paint6_radial_17_301)"/>
<path d="M30.9573 27.2903C30.8525 26.7272 31.4287 26.1641 32.0311 26.4522C33.6418 27.2118 35.8025 28.2986 39.718 26.3736C40.3597 26.0594 40.6609 26.4522 40.6477 26.7927C40.6477 26.8058 40.6477 26.832 40.6477 26.845C39.7835 27.0938 37.9633 28.1677 35.9073 28.1677C33.4977 28.1808 31.9656 27.0153 30.9573 27.2903Z" fill="url(#paint7_linear_17_301)"/>
<path d="M27.5003 41.5773C30.7331 41.5773 33.3539 40.9499 33.3539 40.1761C33.3539 39.4022 30.7331 38.7749 27.5003 38.7749C24.2674 38.7749 21.6467 39.4022 21.6467 40.1761C21.6467 40.9499 24.2674 41.5773 27.5003 41.5773Z" fill="url(#paint8_radial_17_301)"/>
<path d="M27.5003 39.3773C31.1015 39.3773 32.6991 39.6392 33.3539 40.2154C33.3539 40.2023 33.3539 40.1892 33.3539 40.1761C33.3539 39.4035 32.4765 38.7749 27.5003 38.7749C22.5241 38.7749 21.6467 39.4035 21.6467 40.1761C21.6467 40.1892 21.6467 40.2023 21.6467 40.2154C22.3015 39.6392 23.8991 39.3773 27.5003 39.3773Z" fill="url(#paint9_linear_17_301)"/>
<defs>
<radialGradient id="paint0_radial_17_301" cx="0" cy="0" r="1" gradientUnits="userSpaceOnUse" gradientTransform="translate(23.3778 19.013) scale(25.2764)">
<stop stop-color="#FFE030"/>
<stop offset="1" stop-color="#FFB92E"/>
</radialGradient>
<radialGradient id="paint1_radial_17_301" cx="0" cy="0" r="1" gradientUnits="userSpaceOnUse" gradientTransform="translate(23.3816 19.013) scale(19.886)">
<stop stop-color="#FFEA5F"/>
<stop offset="1" stop-color="#FFBC47" stop-opacity="0"/>
</radialGradient>
<linearGradient id="paint2_linear_17_301" x1="17.9508" y1="23.8392" x2="17.6804" y2="20.9922" gradientUnits="userSpaceOnUse">
<stop offset="0.00132565" stop-color="#3C2200"/>
<stop offset="1" stop-color="#7A4400"/>
</linearGradient>
<radialGradient id="paint3_radial_17_301" cx="0" cy="0" r="1" gradientUnits="userSpaceOnUse" gradientTransform="translate(19.1731 28.1144) rotate(-176.694) scale(3.76568 1.81681)">
<stop offset="0.00132565" stop-color="#7A4400"/>
<stop offset="1" stop-color="#643800"/>
</radialGradient>
<linearGradient id="paint4_linear_17_301" x1="14.3679" y1="27.2116" x2="24.0689" y2="27.2116" gradientUnits="userSpaceOnUse">
<stop offset="0.00132565" stop-color="#3C2200"/>
<stop offset="1" stop-color="#512D00"/>
</linearGradient>
<linearGradient id="paint5_linear_17_301" x1="37.0576" y1="23.8461" x2="37.328" y2="20.9991" gradientUnits="userSpaceOnUse">
<stop offset="0.00132565" stop-color="#3C2200"/>
<stop offset="1" stop-color="#7A4400"/>
</linearGradient>
<radialGradient id="paint6_radial_17_301" cx="0" cy="0" r="1" gradientUnits="userSpaceOnUse" gradientTransform="translate(35.8354 28.1214) rotate(-3.30615) scale(3.76569 1.81681)">
<stop offset="0.00132565" stop-color="#7A4400"/>
<stop offset="1" stop-color="#643800"/>
</radialGradient>
<linearGradient id="paint7_linear_17_301" x1="40.6403" y1="27.2186" x2="30.9393" y2="27.2186" gradientUnits="userSpaceOnUse">
<stop offset="0.00132565" stop-color="#3C2200"/>
<stop offset="1" stop-color="#512D00"/>
</linearGradient>
<radialGradient id="paint8_radial_17_301" cx="0" cy="0" r="1" gradientUnits="userSpaceOnUse" gradientTransform="translate(27.4975 40.1712) rotate(-3.30619) scale(4.25313 2.26567)">
<stop offset="0.00132565" stop-color="#7A4400"/>
<stop offset="1" stop-color="#643800"/>
</radialGradient>
<linearGradient id="paint9_linear_17_301" x1="27.5003" y1="38.8551" x2="27.5003" y2="44.1821" gradientUnits="userSpaceOnUse">
<stop offset="0.00132565" stop-color="#3C2200"/>
<stop offset="1" stop-color="#512D00"/>
</linearGradient>
</defs>
</svg>
